<svg width="18" height="17" viewBox="0 0 18 17" fill="none" xmlns="http://www.w3.org/2000/svg">
<g clip-path="url(#clip0_156_4865)">
<path d="M4.77448 1.42634C5.11524 1.44852 5.45651 1.48548 5.79675 1.48351C5.91496 1.48302 6.05784 1.40958 6.14624 1.32727C6.51424 0.983729 6.88018 0.637232 7.21786 0.267078C7.48871 -0.0301301 7.81405 -0.0537884 8.1435 0.0718965C8.48889 0.203496 8.8096 0.396706 9.13391 0.574636C9.80052 0.940848 9.79743 0.941341 10.517 0.694407C10.868 0.573651 11.2175 0.437122 11.5799 0.359247C11.9843 0.2725 12.3169 0.431208 12.543 0.768832C12.7918 1.14096 13.0359 1.51604 13.2806 1.89063C13.3751 2.03505 13.4831 2.12722 13.6835 2.14594C14.1656 2.1903 14.6436 2.27015 15.1236 2.33423C15.6078 2.39879 15.9126 2.72114 15.9434 3.19233C15.9732 3.64973 15.9974 4.1086 16.0544 4.56304C16.0693 4.68035 16.1731 4.81539 16.277 4.88982C16.6259 5.13873 16.9945 5.36299 17.3542 5.59858C17.8615 5.93029 17.9838 6.33101 17.7402 6.87219C17.565 7.26206 17.3738 7.64552 17.2155 8.04131C17.1707 8.1527 17.1764 8.31584 17.2288 8.42379C17.4308 8.8383 17.6662 9.23704 17.8795 9.64663C18.1041 10.0769 18.0126 10.4816 17.6215 10.7862C17.2566 11.0706 16.8881 11.351 16.5113 11.6206C16.3592 11.7295 16.2908 11.8493 16.2975 12.0337C16.3104 12.3944 16.3011 12.7562 16.3011 13.1175C16.3011 13.8864 16.059 14.1639 15.2742 14.2965C14.8821 14.363 14.4858 14.4158 14.1003 14.5099C13.9626 14.5434 13.813 14.6568 13.7375 14.7741C13.5103 15.1285 13.3176 15.5035 13.1099 15.8698C12.8278 16.3671 12.4438 16.5292 11.8728 16.3819C11.4221 16.2655 10.9775 16.127 10.5242 16.0216C10.4013 15.993 10.2333 16.0112 10.1264 16.0723C9.73062 16.2986 9.35183 16.5529 8.96584 16.7954C8.46936 17.1079 8.03454 17.0615 7.60693 16.6603C7.28878 16.3617 6.97681 16.0561 6.63759 15.781C6.52298 15.6884 6.33127 15.6322 6.18017 15.6416C5.73096 15.6692 5.28484 15.7426 4.83615 15.7884C4.29033 15.8441 3.87916 15.5597 3.72137 15.0521C3.59288 14.6395 3.45205 14.2294 3.29632 13.8258C3.26086 13.7341 3.15601 13.6409 3.05938 13.601C2.68522 13.4458 2.30078 13.3132 1.92096 13.1697C1.11506 12.8647 0.951624 12.567 1.12277 11.7547C1.19678 11.4038 1.26309 11.0499 1.30472 10.6945C1.31808 10.5826 1.27285 10.4352 1.19833 10.3485C0.916161 10.0192 0.609325 9.70922 0.314824 9.38983C-0.079899 8.96201 -0.106111 8.56229 0.244925 8.10588C0.518867 7.74952 0.819022 7.41141 1.08474 7.05012C1.15618 6.95352 1.18959 6.79333 1.16595 6.67652C1.07498 6.22997 0.982976 5.77996 0.835468 5.34869C0.694643 4.93861 1.01124 4.44623 1.3741 4.29738C1.78836 4.12733 2.19079 3.93116 2.60813 3.76851C2.82862 3.68226 2.94837 3.55263 2.99925 3.33182C3.08714 2.95131 3.18788 2.57327 3.29684 2.1977C3.46439 1.62152 3.69464 1.45197 4.3114 1.43274C4.46507 1.42782 4.61926 1.43225 4.77294 1.43225V1.42634H4.77448ZM12.2161 15.679C12.2655 15.6268 12.3487 15.5656 12.3955 15.4853C12.6617 15.0284 12.9074 14.5602 13.1875 14.1116C13.2651 13.9874 13.4229 13.8637 13.5663 13.8307C14.1019 13.708 14.6446 13.6074 15.1899 13.5305C15.4382 13.4955 15.4998 13.3896 15.4957 13.1737C15.486 12.6645 15.4988 12.1554 15.4891 11.6462C15.4855 11.4713 15.5512 11.3564 15.6926 11.2519C16.1464 10.9168 16.59 10.5688 17.0438 10.2332C17.182 10.1306 17.1785 10.0375 17.1008 9.90194C16.8439 9.44997 16.6049 8.98814 16.3448 8.53764C16.2394 8.35527 16.2286 8.19065 16.3191 8.00336C16.5442 7.53709 16.7549 7.06442 16.9842 6.59963C17.0715 6.4217 17.0268 6.3177 16.8634 6.21272C16.4085 5.92192 15.9542 5.62865 15.5178 5.3137C15.4058 5.23287 15.3117 5.07268 15.2943 4.93861C15.2233 4.39447 15.1755 3.84737 15.1406 3.30027C15.1298 3.13368 15.0419 3.0839 14.9078 3.06665C14.4688 3.01095 14.0304 2.94491 13.5894 2.91731C13.1516 2.8897 12.8206 2.765 12.6109 2.35246C12.4171 1.97196 12.137 1.63285 11.9108 1.26664C11.8132 1.10843 11.7078 1.07935 11.5362 1.14244C11.0124 1.33417 10.4897 1.52984 9.95625 1.69397C9.8144 1.73784 9.61189 1.7196 9.47929 1.65257C8.99668 1.40859 8.52846 1.13751 8.06281 0.864944C7.8819 0.758974 7.75906 0.782633 7.6208 0.932962C7.26411 1.32086 6.88943 1.69249 6.53326 2.08039C6.38678 2.24009 6.22539 2.28099 6.01107 2.26424C5.47449 2.22234 4.93586 2.20854 4.39877 2.1696C4.18805 2.15432 4.11455 2.24994 4.07035 2.42442C3.9398 2.93801 3.81028 3.45258 3.65353 3.95926C3.61549 4.08149 3.49574 4.21605 3.3765 4.27273C2.88875 4.50389 2.39226 4.72027 1.88704 4.91496C1.65986 5.0022 1.61309 5.12049 1.6686 5.32849C1.79658 5.80904 1.90657 6.29404 2.03865 6.77312C2.09416 6.97422 2.05973 7.13736 1.9261 7.29804C1.59048 7.70171 1.2672 8.11475 0.930037 8.51743C0.818508 8.651 0.815938 8.74761 0.939803 8.87822C1.32014 9.27844 1.69584 9.68359 2.0551 10.1011C2.13528 10.1942 2.18976 10.3524 2.17331 10.4707C2.10033 11.0035 2.02118 11.5373 1.89526 12.0603C1.83924 12.2929 1.93843 12.3535 2.11267 12.4166C2.61327 12.5985 3.10975 12.7932 3.61549 12.9603C3.83393 13.0322 3.95162 13.1545 4.01638 13.359C4.16697 13.8346 4.32065 14.3098 4.4954 14.7775C4.53292 14.8776 4.66912 15.0205 4.75186 15.0161C5.2355 14.99 5.71914 14.9362 6.19918 14.8702C6.54251 14.8234 6.83907 14.8229 7.10324 15.1048C7.42858 15.4518 7.80532 15.7544 8.14864 16.0861C8.28484 16.2177 8.39277 16.2488 8.56135 16.1315C8.87179 15.9151 9.22745 15.751 9.51219 15.509C9.96653 15.1221 10.4229 15.0989 10.9626 15.3182C11.3434 15.473 11.7582 15.5494 12.2182 15.6775L12.2161 15.679Z" fill="#E50040"/>
<path d="M9.5 4L10.5103 7.10942H13.7798L11.1347 9.03115L12.145 12.1406L9.5 10.2188L6.85497 12.1406L7.86528 9.03115L5.22025 7.10942H8.48969L9.5 4Z" fill="#E50040"/>
</g>
<defs>
<clipPath id="clip0_156_4865">
<rect width="18" height="17" fill="white"/>
</clipPath>
</defs>
</svg>
