<svg width="16" height="17" viewBox="0 0 16 17" fill="none" xmlns="http://www.w3.org/2000/svg">
<g clip-path="url(#clip0_159_8238)">
<path d="M3.59899 4.36489C3.53579 4.23523 3.49406 4.15231 3.45483 4.06779C3.13537 3.37883 3.08119 2.67034 3.31254 1.94231C3.57253 1.12497 4.10217 0.55254 4.85942 0.214781C5.39528 -0.024051 5.96197 -0.0528646 6.53489 0.0748755C7.06702 0.193331 7.51664 0.460977 7.8909 0.862126C7.9812 0.959132 8.03849 0.938002 8.1182 0.852522C8.35329 0.600563 8.62698 0.404631 8.93617 0.256721C9.31012 0.078077 9.70089 0.00764388 10.1103 0.00636328C11.2652 0.00252147 12.2407 0.740789 12.6393 1.788C12.9519 2.60887 12.8887 3.42621 12.4761 4.20738C12.4571 4.24324 12.4425 4.28134 12.4142 4.34409C12.4992 4.35241 12.5627 4.36393 12.6262 4.36393C13.5236 4.36522 14.4212 4.3745 15.3186 4.36041C15.7302 4.35401 15.9993 4.67384 15.9993 5.06314C15.9993 6.38056 15.9999 7.6983 15.9993 9.01572C15.9993 9.2155 15.942 9.27409 15.7505 9.27569C15.5948 9.27697 15.4391 9.27601 15.2834 9.27569C15.1169 9.27569 15.0337 9.35882 15.0337 9.52508C15.0337 10.7359 15.0337 11.9467 15.0337 13.1578C15.0337 14.2086 15.0343 15.2596 15.0328 16.3104C15.0325 16.5857 14.9362 16.8098 14.6822 16.9363C14.6367 16.959 14.5863 16.9779 14.5364 16.984C14.444 16.9948 14.3502 16.9987 14.2572 16.9987C10.0861 16.9993 5.91496 16.9996 1.74386 16.9971C1.60623 16.9971 1.45709 16.9945 1.33347 16.9427C1.07753 16.8351 0.968239 16.6081 0.967305 16.3296C0.964814 15.6147 0.96606 14.9001 0.96606 14.1852C0.96606 12.6222 0.96606 11.0592 0.96606 9.49627C0.96606 9.34943 0.894133 9.2759 0.750281 9.27569C0.579028 9.27569 0.407775 9.27729 0.236522 9.27505C0.0637126 9.27312 0.00175022 9.21134 0.000816115 9.03397C-0.00136347 8.68725 0.000816115 8.34053 0.000816115 7.9938C0.000816115 7.02311 -0.000740729 6.05209 0.00175022 5.08139C0.00268433 4.78237 0.106682 4.53682 0.39283 4.4158C0.475654 4.38058 0.572489 4.3665 0.663098 4.36618C1.56576 4.36265 2.46841 4.36393 3.37107 4.36393C3.43117 4.36393 3.49126 4.36393 3.59868 4.36393L3.59899 4.36489ZM7.32265 12.4557C7.32265 11.4742 7.32265 10.4926 7.32265 9.51132C7.32265 9.35914 7.24855 9.28294 7.10034 9.28273C5.57494 9.28273 4.04986 9.28273 2.52446 9.28273C2.38019 9.28273 2.30796 9.35594 2.30775 9.50235C2.30775 11.4706 2.30775 13.4389 2.30775 15.4075C2.30775 15.6265 2.31491 15.6358 2.52353 15.6358C4.0539 15.6364 5.58459 15.6364 7.11497 15.6358C7.31612 15.6358 7.32265 15.6272 7.32265 15.4168C7.32265 14.4301 7.32265 13.4431 7.32265 12.4564V12.4557ZM13.6926 12.4557C13.6926 11.4636 13.6898 10.4714 13.6958 9.4793C13.6967 9.32467 13.6494 9.27889 13.5005 9.27953C11.9596 9.28433 10.4189 9.28465 8.87794 9.27953C8.72257 9.27889 8.67368 9.32147 8.674 9.48602C8.67929 11.4652 8.67742 13.444 8.67742 15.4232C8.67742 15.6227 8.6877 15.6355 8.87607 15.6355C10.4117 15.6361 11.9474 15.6361 13.4831 15.6355C13.6836 15.6355 13.6926 15.6243 13.6926 15.4168C13.6926 14.4301 13.6926 13.4431 13.6926 12.4564V12.4557ZM4.32542 7.88879C5.2589 7.88879 6.1927 7.88495 7.12618 7.89232C7.28654 7.8936 7.32826 7.84173 7.32608 7.68198C7.31767 7.1009 7.3183 6.51951 7.32608 5.93812C7.32826 5.78092 7.27439 5.73866 7.12836 5.73898C5.26638 5.74282 3.40439 5.74282 1.5424 5.73898C1.39668 5.73898 1.34219 5.77836 1.34437 5.93651C1.35216 6.52303 1.35278 7.10987 1.34406 7.69638C1.34157 7.85582 1.39575 7.89232 1.54085 7.89136C2.46935 7.88559 3.39754 7.88847 4.32604 7.88847L4.32542 7.88879ZM11.6572 7.88879C12.596 7.88879 13.5348 7.88687 14.4736 7.89103C14.6031 7.89167 14.6579 7.86222 14.6563 7.71431C14.6489 7.11723 14.6498 6.51983 14.6557 5.92243C14.6573 5.78092 14.6099 5.73898 14.4757 5.7393C12.6035 5.74282 10.7309 5.74282 8.85864 5.73898C8.71136 5.73866 8.67368 5.79405 8.67493 5.93619C8.68084 6.51727 8.67742 7.09866 8.67742 7.68006C8.67742 7.81857 8.74748 7.88805 8.88759 7.88847C9.8108 7.88847 10.734 7.88847 11.6572 7.88847V7.88879ZM7.32795 3.37947C7.32795 3.37947 7.32639 3.37947 7.32546 3.37947C7.32546 3.18226 7.32048 2.98505 7.3267 2.78783C7.33418 2.557 7.27159 2.34538 7.16635 2.14721C6.79582 1.44992 6.09991 1.23062 5.47437 1.4464C4.72335 1.70508 4.31888 2.47024 4.6069 3.3561C4.76351 3.83761 5.32771 4.26949 5.82746 4.27781C6.27303 4.2855 6.71891 4.27717 7.16479 4.2823C7.28591 4.28358 7.332 4.23908 7.3295 4.11486C7.32421 3.86994 7.32795 3.62439 7.32795 3.37947ZM8.67555 3.37851C8.67555 3.37851 8.67306 3.37851 8.67182 3.37851C8.67182 3.62375 8.67555 3.86898 8.67026 4.1139C8.66777 4.23715 8.71229 4.28486 8.83404 4.2823C9.12423 4.27621 9.41474 4.28902 9.70463 4.27813C9.9615 4.26853 10.2305 4.28166 10.4718 4.2077C11.273 3.96247 11.6348 3.23412 11.4421 2.44815C11.2291 1.58022 10.3467 1.13906 9.52808 1.4941C9.00218 1.72205 8.71416 2.14913 8.67742 2.73917C8.66403 2.95143 8.67524 3.16529 8.67524 3.37851H8.67555Z" fill="#E50040"/>
</g>
<defs>
<clipPath id="clip0_159_8238">
<rect width="16" height="17" fill="white"/>
</clipPath>
</defs>
</svg>
