<svg width="11" height="11" viewBox="0 0 11 11" fill="none" xmlns="http://www.w3.org/2000/svg">
<g clip-path="url(#clip0_324_2025)">
<path d="M2.75005 0C2.53298 0 2.35712 0.175864 2.35712 0.392931V1.17856H3.14275V0.392931C3.14275 0.175864 2.96688 0 2.74982 0H2.75005Z" fill="#C3C3C3"/>
<path d="M8.24993 0C8.03286 0 7.85699 0.175864 7.85699 0.392931V1.17856H8.64263V0.392931C8.64263 0.175864 8.46676 0 8.2497 0H8.24993Z" fill="#C3C3C3"/>
<path d="M9.82144 1.17847H8.64287V2.74996C8.64287 2.96703 8.46701 3.14289 8.24994 3.14289C8.03288 3.14289 7.85701 2.96703 7.85701 2.74996V1.17847H3.14276V2.74996C3.14276 2.96703 2.96689 3.14289 2.74983 3.14289C2.53276 3.14289 2.3569 2.96703 2.3569 2.74996V1.17847H1.17833C0.527591 1.17847 0 1.70606 0 2.35703V9.82134C0 10.4723 0.527591 10.9999 1.17856 10.9999H9.82144C10.4724 10.9999 11 10.4723 11 9.82134V2.35703C11 1.70606 10.4724 1.17847 9.82144 1.17847ZM10.2144 9.82134C10.2144 10.0384 10.0385 10.2143 9.82144 10.2143H1.17856C0.961496 10.2143 0.785632 10.0384 0.785632 9.82134V4.71416H10.2141V9.82134H10.2144Z" fill="#C3C3C3"/>
<path d="M8.13508 5.61515C7.98177 5.46162 7.73294 5.46162 7.5794 5.61515L4.71425 8.4803L3.42059 7.18665C3.26706 7.03334 3.01822 7.03334 2.86492 7.18665C2.71161 7.34018 2.71161 7.58902 2.86492 7.74232L4.43641 9.31381C4.58972 9.46712 4.83855 9.46712 4.99186 9.31381L8.13461 6.17106C8.28815 6.01775 8.28815 5.76892 8.13461 5.61538L8.13508 5.61515Z" fill="#C3C3C3"/>
</g>
<defs>
<clipPath id="clip0_324_2025">
<rect width="11" height="11" fill="white"/>
</clipPath>
</defs>
</svg>
