<svg width="15" height="14" viewBox="0 0 15 14" fill="none" xmlns="http://www.w3.org/2000/svg">
<g clip-path="url(#clip0_156_4855)">
<path d="M3.75008 0C3.45408 0 3.21426 0.223827 3.21426 0.500094V1.49999H4.28558V0.500094C4.28558 0.223827 4.04577 0 3.74977 0H3.75008Z" fill="#E50040"/>
<path d="M11.2499 0C10.9539 0 10.7141 0.223827 10.7141 0.500094V1.49999H11.7854V0.500094C11.7854 0.223827 11.5456 0 11.2496 0H11.2499Z" fill="#E50040"/>
<path d="M13.3929 1.5H11.7857V3.50008C11.7857 3.77635 11.5459 4.00018 11.2499 4.00018C10.9539 4.00018 10.7141 3.77635 10.7141 3.50008V1.5H4.28558V3.50008C4.28558 3.77635 4.04577 4.00018 3.74976 4.00018C3.45376 4.00018 3.21395 3.77635 3.21395 3.50008V1.5H1.60682C0.719442 1.5 0 2.17148 0 2.99999V12.5C0 13.3285 0.719442 14 1.60713 14H13.3929C14.2806 14 15 13.3285 15 12.5V2.99999C15 2.17148 14.2806 1.5 13.3929 1.5ZM13.9287 12.5C13.9287 12.7763 13.6889 13.0001 13.3929 13.0001H1.60713C1.31113 13.0001 1.07132 12.7763 1.07132 12.5V5.99997H13.9284V12.5H13.9287Z" fill="#E50040"/>
<path d="M11.0933 7.14656C10.8842 6.95115 10.5449 6.95115 10.3355 7.14656L6.42851 10.7931L4.66444 9.14664C4.45507 8.95152 4.11575 8.95152 3.9067 9.14664C3.69765 9.34205 3.69765 9.65875 3.9067 9.85386L6.04964 11.8539C6.2587 12.0491 6.59802 12.0491 6.80707 11.8539L11.0926 7.85407C11.302 7.65896 11.302 7.34226 11.0926 7.14685L11.0933 7.14656Z" fill="#E50040"/>
</g>
<defs>
<clipPath id="clip0_156_4855">
<rect width="15" height="14" fill="white"/>
</clipPath>
</defs>
</svg>
