<svg width="24" height="15" viewBox="0 0 24 15" fill="none" xmlns="http://www.w3.org/2000/svg">
<path d="M19.0743 7C19.2028 7.27988 19.3231 7.54127 19.4429 7.80266C19.5966 8.13772 19.7482 8.47363 19.9067 8.80642C19.9247 8.84396 19.9785 8.88094 20.0213 8.88919C20.4929 8.97793 20.9657 9.06098 21.4382 9.14546C21.613 9.17675 21.7878 9.20832 21.9903 9.24472C21.9486 9.28909 21.9209 9.32323 21.8885 9.35195C21.4521 9.73821 21.0149 10.1233 20.5783 10.5093C20.495 10.583 20.4435 10.6535 20.4646 10.7855C20.5615 11.3919 20.6408 12.0011 20.7259 12.6095C20.7282 12.6272 20.7244 12.6457 20.7224 12.6798C20.3457 12.4687 19.9791 12.2634 19.6125 12.058C19.412 11.9457 19.2094 11.8362 19.0118 11.719C18.9383 11.6755 18.881 11.6703 18.8009 11.709C18.2401 11.9801 17.6765 12.2449 17.1137 12.5117C17.0926 12.5216 17.0703 12.5296 17.0217 12.5498C17.0587 12.3578 17.09 12.1852 17.1258 12.0131C17.2202 11.56 17.3133 11.1063 17.4152 10.6546C17.4357 10.5631 17.4169 10.5073 17.353 10.4425C16.9308 10.0138 16.5127 9.5812 16.0935 9.14944C16.0671 9.12242 16.0428 9.09369 16 9.04619C16.1915 9.02173 16.3637 8.99642 16.5364 8.97793C17.0188 8.92588 17.502 8.88008 17.9837 8.82149C18.0396 8.81467 18.1061 8.75266 18.1359 8.69919C18.4276 8.17726 18.7123 7.65135 18.9991 7.12686C19.019 7.09045 19.0413 7.05546 19.074 7.00028L19.0743 7Z" fill="#E50040"/>
<path d="M5.85055 14.2361C6.93473 14.2196 7.90374 13.8854 8.76715 13.2545C9.82036 12.4849 10.4621 11.4527 10.7254 10.1952C10.7874 9.89996 10.7946 9.59363 10.8255 9.29241C10.8516 9.03927 10.9945 8.91128 11.2413 8.92351C11.4659 8.93489 11.5978 9.0808 11.5958 9.32086C11.5845 10.5308 11.2005 11.625 10.5087 12.6151C9.96822 13.3888 9.2437 13.9559 8.38811 14.3672C7.54119 14.7742 6.64567 15.0058 5.70588 14.9995C4.66105 14.9924 3.68538 14.7037 2.79218 14.1616C2.17558 13.7873 1.64811 13.3165 1.20801 12.7508C0.597205 11.9655 0.203696 11.0829 0.0671251 10.1062C-0.196757 8.22068 0.317408 6.55847 1.60933 5.1329C2.08617 4.60671 2.65966 4.18803 3.19263 3.72355C3.72473 3.25965 4.25279 2.78806 4.74641 2.28576C5.12111 1.90462 5.31497 1.41654 5.37979 0.885507C5.4038 0.688966 5.42 0.490434 5.46167 0.29759C5.49929 0.12295 5.68649 -0.0104481 5.83782 0.000644672C6.00072 0.0125907 6.1561 0.173578 6.16246 0.365569C6.19545 1.34714 5.91218 2.21465 5.18072 2.91094C4.70012 3.36858 4.21836 3.82538 3.72676 4.27137C3.30634 4.65307 2.85872 5.00605 2.44583 5.39515C1.90331 5.90627 1.46061 6.48992 1.18371 7.1882C0.831574 8.07619 0.715258 8.99205 0.839676 9.93181C0.960622 10.8454 1.31825 11.67 1.91315 12.3864C2.73112 13.3717 3.80083 13.9323 5.06238 14.1545C5.32192 14.2003 5.58783 14.2099 5.85084 14.2364L5.85055 14.2361Z" fill="#E50040"/>
<path d="M23.2425 9.38928C23.1855 8.98368 23.1519 8.57296 23.0663 8.17334C22.9129 7.45743 22.5547 6.83197 22.0973 6.26254C21.4549 5.463 20.7122 4.75335 20.0001 4.01611C19.5727 3.57382 19.15 3.12527 18.7524 2.6571C18.306 2.13119 17.9944 1.53075 17.8618 0.850681C17.8228 0.650726 17.7846 0.450487 17.8795 0.252808C17.9582 0.0886921 18.1318 -0.0102896 18.2999 0.0215666C18.4483 0.0497252 18.5534 0.151551 18.567 0.299171C18.6396 1.08505 18.9946 1.74948 19.5166 2.32431C20.2345 3.11475 20.9816 3.87958 21.7096 4.66148C22.2949 5.29035 22.8759 5.9235 23.2952 6.67923C23.7729 7.5402 24.0263 8.46004 23.9974 9.43962C23.9685 10.4107 23.6956 11.3183 23.1771 12.1537C22.7049 12.9145 22.132 13.5789 21.3647 14.0665C20.5316 14.5958 19.617 14.8802 18.6292 14.9581C18.0427 15.0045 17.4649 14.9627 16.8931 14.8404C16.1278 14.6766 15.4215 14.3759 14.7942 13.9097C13.8255 13.1901 13.1073 12.2873 12.7176 11.1465C12.5344 10.6103 12.4282 10.0605 12.4051 9.49537C12.4025 9.4291 12.4025 9.36254 12.4062 9.29655C12.4201 9.06673 12.5619 8.92992 12.7928 8.92082C12.9977 8.91286 13.1504 9.04455 13.1791 9.26384C13.1976 9.40464 13.2048 9.54657 13.2153 9.68822C13.2919 10.7309 13.6611 11.6545 14.3735 12.4384C15.0228 13.1526 15.7901 13.6981 16.7195 14.005C17.4565 14.2482 18.2108 14.2795 18.9721 14.1432C19.8861 13.9794 20.7214 13.6355 21.4491 13.0593C21.7923 12.7874 22.0848 12.4691 22.3328 12.1101C22.7891 11.4494 23.0431 10.711 23.1878 9.93396C23.2202 9.75989 23.1924 9.5753 23.1924 9.39554L23.2416 9.38985L23.2425 9.38928Z" fill="#E50040"/>
<path d="M7.91301 8.59197C7.68761 8.8252 7.48622 9.03455 7.28368 9.24275C7.03079 9.503 6.77328 9.75899 6.52676 10.0249C6.48827 10.0665 6.47641 10.1546 6.48827 10.2144C6.56061 10.5804 6.64423 10.9442 6.72206 11.3091C6.77704 11.566 6.82883 11.8237 6.8867 12.1041C6.58318 11.9619 6.30251 11.8311 6.02243 11.6988C5.73221 11.5614 5.43882 11.4297 5.15468 11.281C5.03489 11.2184 4.94664 11.2355 4.83872 11.2975C4.33178 11.5882 3.82138 11.8732 3.31184 12.1599C3.27481 12.1806 3.2369 12.1994 3.17527 12.2318C3.20218 12.0262 3.22417 11.8416 3.2505 11.6578C3.31416 11.2141 3.37984 10.7707 3.44465 10.3273C3.45767 10.2388 3.43945 10.1708 3.36277 10.104C2.91689 9.71376 2.47795 9.31556 2.03497 8.92191C1.99706 8.88835 1.94527 8.87014 1.89984 8.84483C1.91286 8.82719 1.92588 8.80928 1.9389 8.79164C2.31968 8.72309 2.70046 8.65426 3.08153 8.586C3.35525 8.53708 3.62954 8.49157 3.90211 8.43781C3.93943 8.43041 3.98283 8.38946 3.99962 8.35333C4.20592 7.91161 4.40759 7.46762 4.611 7.02476C4.67958 6.87543 4.7496 6.72639 4.83235 6.54834C4.9669 6.7938 5.08871 7.01481 5.20966 7.23638C5.39397 7.574 5.57973 7.91048 5.75999 8.25009C5.80773 8.34025 5.87312 8.37353 5.97411 8.38377C6.60922 8.44862 7.24346 8.51944 7.9133 8.59226L7.91301 8.59197Z" fill="#E50040"/>
</svg>
