<svg width="17" height="14" viewBox="0 0 17 14" fill="none" xmlns="http://www.w3.org/2000/svg">
<path d="M13.1057 0.656893C11.9117 0.861853 10.849 1.3035 9.88132 1.98099C9.63367 2.15422 9.39669 2.35317 9.18512 2.57186C8.85219 2.91574 8.78659 3.40713 8.98093 3.8342C9.18922 4.29215 9.58283 4.50654 10.1298 4.46109C10.5119 4.42936 10.9088 4.06318 11.0187 3.63182C11.0523 3.49889 11.0671 3.36082 11.1105 3.10784C10.8211 3.31108 10.6136 3.45173 10.4111 3.60009C10.1495 3.79047 9.86082 3.95083 9.61891 3.62667C9.37947 3.30508 9.57627 3.03495 9.83786 2.8377C10.9318 2.01272 12.0888 1.32837 13.4837 1.29407C14.8859 1.25891 15.8126 2.04188 16.4284 3.28364C16.6326 3.69613 16.7474 4.15665 16.9344 4.58115C17.0918 4.93962 16.9557 5.0734 16.6359 5.12571C16.4899 5.14972 16.3456 5.18831 16.1734 5.22605C15.6797 3.79476 15.2623 2.2657 13.323 2.23311C13.323 2.67133 13.323 3.09326 13.323 3.51433C13.323 3.97142 13.3951 4.4448 13.3025 4.88044C13.2082 5.31952 13.0409 5.81348 12.7498 6.12393C10.3881 8.64348 7.99362 11.1296 5.59832 13.614C5.09975 14.1311 4.72745 14.1285 4.21822 13.6071C2.94062 12.2976 1.67285 10.9778 0.421493 9.64084C-0.151706 9.02853 -0.135305 8.6512 0.440353 8.03203C1.32598 7.07926 2.22473 6.14022 3.12348 5.20032C4.47653 3.78618 5.84843 2.39176 7.18343 0.959617C7.81568 0.278703 8.55042 -0.0368841 9.44671 0.00342187C10.3061 0.0420127 11.1663 0.0651672 12.0257 0.0968974C12.4447 0.112334 12.8236 0.218673 13.1057 0.656893ZM9.05228 7.43258C9.05228 6.67449 8.5209 6.10592 7.80583 6.09906C7.13751 6.09305 6.54053 6.73538 6.54873 7.45145C6.55775 8.16667 7.11373 8.74124 7.80337 8.74724C8.52992 8.75325 9.05146 8.2044 9.05228 7.43258ZM3.96401 9.60825C4.63971 9.72831 5.25965 9.03796 5.26293 8.29616C5.26621 7.59381 4.65365 6.98407 3.96729 6.9755C3.33259 6.96778 2.74053 7.61353 2.74053 8.31503C2.74053 9.05254 3.26371 9.60653 3.96401 9.60825ZM6.42655 10.1459C6.42655 10.1459 6.43065 10.1459 6.43311 10.1459C6.42327 9.97529 6.41917 9.80378 6.40359 9.63312C6.27648 8.21641 6.14036 6.80141 6.0231 5.38384C6.00096 5.1137 5.96077 4.87616 5.65736 4.8813C5.34821 4.88645 5.34821 5.14972 5.36625 5.38556C5.41628 6.03817 5.47286 6.68993 5.52862 7.34168C5.61636 8.36219 5.69017 9.38442 5.80907 10.4015C5.82957 10.5764 6.03376 10.8509 6.16906 10.8612C6.45771 10.8843 6.46263 10.6005 6.43803 10.3595C6.43065 10.2883 6.42983 10.2171 6.42655 10.1459Z" fill="#9DB93B"/>
</svg>
