<svg width="16" height="11" viewBox="0 0 16 11" fill="none" xmlns="http://www.w3.org/2000/svg">
<g clip-path="url(#clip0_156_4805)">
<path d="M10.7609 4.72344C10.593 4.39708 10.4263 4.07504 10.261 3.75213C9.6809 2.62044 9.10082 1.48832 8.52075 0.356636C8.40508 0.130729 8.22943 -0.0042109 7.96767 0.000100285C7.71233 0.00441147 7.54611 0.138921 7.43215 0.36224C6.71841 1.76079 6.00124 3.15805 5.28536 4.55573C5.25794 4.60962 5.22924 4.66222 5.19411 4.72861C5.15384 4.71007 5.11571 4.69369 5.07887 4.67515C3.67195 3.97157 2.26675 3.26496 0.856841 2.56784C0.727888 2.50404 0.56509 2.45791 0.426712 2.47472C0.0604172 2.5187 -0.0608234 2.83169 0.0287161 3.13908C0.164951 3.60813 0.32989 4.06857 0.484549 4.53202C1.15459 6.53759 1.82549 8.54315 2.49596 10.5483C2.60606 10.8772 2.76886 10.9997 3.1043 10.9997C6.38125 10.9997 9.65819 10.9997 12.9351 10.9997C13.3066 10.9997 13.4745 10.8738 13.5902 10.5177C14.3742 8.1129 15.1577 5.70812 15.943 3.30333C16.015 3.08346 16.042 2.87049 15.8822 2.67735C15.6843 2.43808 15.4272 2.39109 15.1286 2.54025C14.3999 2.90369 13.6724 3.26928 12.9446 3.634C12.2625 3.97588 11.5805 4.31776 10.898 4.6592C10.856 4.68033 10.8128 4.69973 10.7614 4.72387L10.7609 4.72344ZM14.4736 4.12677C14.4547 4.18497 14.4436 4.21989 14.432 4.25438C13.8228 6.08491 13.2127 7.91501 12.6061 9.74641C12.5736 9.84513 12.5273 9.87445 12.424 9.87402C9.48768 9.87057 6.55176 9.87057 3.6154 9.87402C3.49502 9.87402 3.43932 9.84513 3.39862 9.72183C2.83569 8.02107 2.26632 6.32246 1.69868 4.62342C1.65026 4.4777 1.60442 4.33155 1.54873 4.15867C1.61213 4.18756 1.64984 4.20308 1.68668 4.22162C2.8434 4.79889 4.00012 5.37615 5.15641 5.95385C5.55398 6.1526 5.84016 6.05905 6.04151 5.66198C6.66957 4.42511 7.29763 3.18779 7.92611 1.95091C7.94882 1.90608 7.97324 1.86253 8.00622 1.80088C8.03364 1.85089 8.05249 1.8828 8.0692 1.91599C8.69597 3.15417 9.32231 4.39234 9.94866 5.63094C10.1701 6.06939 10.4418 6.16079 10.8757 5.94178C12.0183 5.36451 13.1605 4.78725 14.3031 4.21041C14.3519 4.18583 14.4016 4.16255 14.4736 4.12763V4.12677Z" fill="#E50040"/>
</g>
<defs>
<clipPath id="clip0_156_4805">
<rect width="16" height="11" fill="white" transform="matrix(-1 0 0 1 16 0)"/>
</clipPath>
</defs>
</svg>
