<svg width="16" height="16" viewBox="0 0 16 16" fill="none" xmlns="http://www.w3.org/2000/svg">
<path d="M2.72761 2.24193C2.92297 2.18574 3.29009 2.25754 3.65869 2.29008C3.86538 2.30834 4.07435 2.30174 4.2823 2.3026C4.41974 2.30315 4.518 2.23772 4.56951 2.10893C4.68781 1.81328 4.79958 1.51483 4.92484 1.22243C4.9993 1.04845 5.08055 0.874199 5.18296 0.715588C5.43288 0.328833 5.86058 0.1879 6.27857 0.378805C6.54433 0.499956 6.7863 0.674309 7.03498 0.830505C7.22795 0.951728 7.4147 1.0829 7.6053 1.20813C7.69781 1.26891 7.79729 1.27026 7.88831 1.21241C8.06022 1.10368 8.23155 0.993028 8.39554 0.872976C8.64045 0.694269 8.86351 0.481028 9.12326 0.328543C9.62251 0.0354111 10.0955 0.156143 10.3949 0.654437C10.5775 0.958188 10.6964 1.29892 10.8643 1.61222C11.1329 2.11331 11.1297 2.11133 11.6824 2.05858C12.0359 2.02498 12.3852 1.93419 12.7386 1.91404C13.2836 1.88304 13.6303 2.15625 13.7165 2.66392C13.7492 2.85779 13.7391 3.06173 13.7289 3.25971C13.7154 3.52019 13.6824 3.77943 13.6579 4.03908C13.6257 4.37719 13.7908 4.5591 14.1045 4.66507C14.4504 4.78182 14.7886 4.92538 15.1198 5.08005C15.2575 5.14436 15.387 5.25091 15.4865 5.36714C15.7193 5.63889 15.7541 5.96377 15.5975 6.27494C15.4447 6.57872 15.2421 6.85735 15.0593 7.1458C14.9728 7.28225 14.8829 7.41645 14.7919 7.5498C14.7102 7.66957 14.7097 7.79329 14.7853 7.91053C14.8958 8.08133 15.0122 8.24886 15.1328 8.41271C15.3039 8.64562 15.506 8.85957 15.6507 9.10741C15.9448 9.61179 15.8287 10.0775 15.3286 10.3786C15.0253 10.5614 14.6837 10.6794 14.3711 10.8483C13.8657 11.1212 13.8757 11.1101 13.9262 11.6671C13.9584 12.0208 14.0489 12.3702 14.0677 12.7241C14.0962 13.2697 13.8375 13.603 13.331 13.6969C13.1335 13.7334 12.9244 13.7219 12.7214 13.7126C12.4421 13.7001 12.1636 13.6702 11.8851 13.6458C11.5902 13.6197 11.4366 13.773 11.3389 14.0365C11.2 14.4103 11.0657 14.7899 10.8801 15.141C10.6023 15.6663 10.1346 15.7974 9.59933 15.5389C9.46324 15.4732 9.3345 15.3894 9.20837 15.3054C8.94724 15.1319 8.68996 14.9523 8.431 14.7751C8.31159 14.6935 8.19023 14.6929 8.07163 14.7728C7.89899 14.889 7.72178 14.9999 7.55952 15.1296C7.2708 15.3604 7.00785 15.6279 6.64112 15.7407C6.27476 15.8537 5.93552 15.7725 5.71559 15.4569C5.52751 15.187 5.39427 14.8787 5.23894 14.5861C5.2102 14.5318 5.19685 14.4694 5.16838 14.4151C4.86099 13.8258 4.84385 13.8322 4.11824 13.9346C3.78576 13.9815 3.45037 14.0463 3.11697 14.0421C2.62088 14.0358 2.29872 13.7137 2.27157 13.2167C2.25509 12.9155 2.29974 12.6112 2.31166 12.3082C2.3197 12.1052 2.32098 11.9016 2.32081 11.6981C2.3208 11.5608 2.25346 11.4632 2.12495 11.4115C1.82932 11.2932 1.53059 11.1824 1.23832 11.0565C1.06008 10.9797 0.88175 10.8958 0.719988 10.7899C0.343108 10.5429 0.207042 10.1116 0.395698 9.70197C0.513878 9.44515 0.680792 9.2102 0.83259 8.96971C0.956866 8.77311 1.09216 8.5833 1.2208 8.38925C1.28784 8.28796 1.28867 8.18087 1.22348 8.08044C1.10984 7.90612 0.994835 7.73221 0.871898 7.5646C0.701006 7.33161 0.498257 7.11846 0.351755 6.87147C0.0548674 6.37062 0.169528 5.90029 0.65769 5.59233C0.88928 5.44632 1.14809 5.34367 1.39443 5.22063C1.55969 5.1381 1.72556 5.05657 1.88867 4.96991C2.04914 4.88436 2.11232 4.74097 2.09125 4.56683C2.05882 4.29855 2.008 4.03258 1.9791 3.76412C1.95376 3.52891 1.92534 3.29045 1.93764 3.0554C1.95809 2.6618 2.181 2.40593 2.72853 2.24105L2.72761 2.24193ZM10.7529 7.2342C10.7387 7.23645 10.7243 7.23905 10.71 7.24129C10.6849 7.2027 10.6584 7.16479 10.6348 7.12542C10.3903 6.71844 10.1489 6.30964 9.90117 5.90456C9.77821 5.70353 9.58003 5.65343 9.40196 5.76643C9.24289 5.86737 9.20481 6.07265 9.3159 6.2582C9.78908 7.048 10.263 7.83727 10.7381 8.62559C10.8477 8.80739 10.9842 8.87149 11.1503 8.82872C11.3186 8.78555 11.3973 8.6777 11.4048 8.46502C11.4154 8.16157 11.4202 7.85778 11.4286 7.55408C11.43 7.50652 11.4364 7.45919 11.4405 7.4117C11.5063 7.4445 11.5377 7.48389 11.5668 7.52457C11.7458 7.77567 11.9206 8.03017 12.1043 8.27777C12.2379 8.45795 12.4399 8.48927 12.6032 8.36378C12.722 8.2727 12.7386 8.142 12.7314 8.0039C12.7047 7.47783 12.6785 6.95158 12.6515 6.42559C12.6311 6.02739 12.614 5.6291 12.5871 5.23172C12.5733 5.02968 12.4236 4.89352 12.2461 4.89978C12.0507 4.90674 11.9209 5.04205 11.91 5.25248C11.9077 5.29496 11.911 5.33785 11.9129 5.38053C11.9349 5.81165 11.9573 6.24296 11.979 6.67416C11.982 6.73592 11.9812 6.79795 11.9821 6.85975C11.9187 6.83189 11.8894 6.79725 11.8633 6.76071C11.7226 6.56391 11.5842 6.36519 11.442 6.1697C11.3271 6.01188 11.1957 5.96146 11.0366 6.00749C10.8754 6.05419 10.7851 6.17717 10.7776 6.37314C10.769 6.60078 10.7661 6.82849 10.7602 7.0562C10.7586 7.11549 10.7554 7.17466 10.7528 7.23393L10.7529 7.2342ZM5.76298 8.97367C5.75284 8.98154 5.74234 8.98921 5.7322 8.99707C5.65969 8.94513 5.58672 8.89362 5.51459 8.84097C4.95422 8.43137 4.39359 8.02185 3.83379 7.61117C3.72658 7.53249 3.61367 7.50269 3.48632 7.55489C3.29397 7.63373 3.22645 7.80112 3.2994 8.04274C3.55259 8.8804 3.80832 9.71759 4.06397 10.5545C4.07902 10.6039 4.10205 10.6521 4.12843 10.6966C4.21896 10.8499 4.38329 10.9026 4.54585 10.8337C4.72639 10.7573 4.79305 10.5851 4.72355 10.3528C4.59306 9.91534 4.4584 9.47882 4.32546 9.04208C4.30401 8.97161 4.28247 8.90086 4.26102 8.83039C4.27053 8.82243 4.2804 8.81465 4.28991 8.80668C4.32681 8.82887 4.36539 8.84876 4.40022 8.87398C4.98 9.29737 5.55967 9.72139 6.13907 10.1455C6.31956 10.2777 6.46726 10.2933 6.60967 10.1935C6.73976 10.1023 6.77511 9.95278 6.71624 9.74269C6.70988 9.71985 6.70235 9.69707 6.69545 9.6744C6.45442 8.88258 6.2134 8.09076 5.97191 7.29937C5.95253 7.23573 5.93988 7.16378 5.90044 7.1146C5.84649 7.04716 5.77778 6.98123 5.70088 6.94525C5.58321 6.89004 5.46577 6.93265 5.37133 7.01452C5.2474 7.12208 5.24457 7.26471 5.28748 7.40863C5.42911 7.88272 5.57447 8.35538 5.71856 8.82872C5.73327 8.87707 5.74799 8.92541 5.7627 8.97376L5.76298 8.97367ZM7.37043 7.08914C7.4154 7.07217 7.45386 7.05539 7.49373 7.04326C7.75302 6.96373 8.01328 6.88839 8.27107 6.80395C8.35032 6.77804 8.43319 6.74147 8.49457 6.68727C8.61152 6.58423 8.62652 6.4188 8.55136 6.28171C8.47285 6.13848 8.31481 6.08004 8.11614 6.13813C7.7007 6.25951 7.28625 6.38418 6.87413 6.51649C6.62622 6.59613 6.54549 6.75441 6.62052 7.00286C6.87704 7.85442 7.13622 8.70489 7.39739 9.55504C7.47792 9.81763 7.6339 9.89968 7.89995 9.82377C8.13771 9.75587 8.37358 9.68079 8.61001 9.60853C8.7919 9.55316 8.97685 9.50492 9.15487 9.43879C9.36773 9.35967 9.45025 9.1916 9.38662 9.00116C9.32727 8.82285 9.15755 8.73783 8.94762 8.79128C8.79116 8.83115 8.63753 8.88328 8.48295 8.93034C8.31608 8.98113 8.14921 9.03193 7.98207 9.0828L7.77663 8.40788C8.10026 8.30937 8.41429 8.21557 8.72687 8.11804C8.94213 8.05072 9.04447 7.87422 8.98523 7.68156C8.92607 7.48916 8.74429 7.40273 8.52573 7.46508C8.40225 7.50058 8.27985 7.53963 8.15723 7.57696C7.96332 7.63598 7.76941 7.69501 7.57387 7.75453L7.37125 7.0889L7.37043 7.08914Z" fill="#9DB93B"/>
</svg>
