<svg width="16" height="16" viewBox="0 0 16 16" fill="none" xmlns="http://www.w3.org/2000/svg">
<path d="M8.94506 4.04227C8.33512 3.48669 7.8191 3.03818 7.33324 2.56149C7.2022 2.43302 7.16162 2.22004 7.07929 2.04536C7.25554 1.9924 7.4318 1.89323 7.60922 1.8921C9.4634 1.88309 11.3176 1.88196 13.1718 1.89661C13.8768 1.90225 14.067 2.07917 14.0751 2.78012C14.0971 4.61925 14.0902 6.45951 14.082 8.29864C14.082 8.44965 13.9765 8.60065 13.9197 8.75166C13.7562 8.67728 13.5556 8.6401 13.4362 8.52402C12.948 8.04734 12.4864 7.54586 11.8974 6.93281C11.2874 7.56952 10.7703 8.11721 10.2438 8.657C9.95159 8.95676 9.65473 9.25314 9.34048 9.53036C8.70387 10.0949 8.00116 10.104 7.3715 9.54727C6.9726 9.19341 6.58762 8.82153 6.22467 8.43274C5.69358 7.86252 5.72489 7.08607 6.31628 6.51135C7.13495 5.71574 7.97913 4.94605 8.9439 4.04227H8.94506Z" fill="#494949"/>
<path d="M11.6585 8.77758C11.6585 9.95521 11.771 11.063 11.626 12.1392C11.4927 13.1286 10.5279 13.7631 9.47847 13.7721C7.72169 13.7879 5.96492 13.789 4.20814 13.7698C2.90128 13.7552 1.93882 12.8367 1.91795 11.5611C1.89012 9.83575 1.89012 8.10819 1.91795 6.38287C1.93767 5.10833 2.90012 4.20003 4.21162 4.17524C5.13581 4.15721 6.06 4.17186 6.99811 4.17186C6.70705 4.9314 5.8536 5.53543 5.10914 5.53656C3.39295 5.53881 3.32337 5.60643 3.32337 7.28328C3.32337 8.63446 3.31873 9.98451 3.32569 11.3357C3.32917 12.0952 3.6353 12.4006 4.40759 12.404C6.02869 12.4108 7.65096 12.4096 9.27322 12.4018C10.0072 12.3984 10.3169 12.0896 10.3389 11.3684C10.3412 11.312 10.3493 11.2534 10.3389 11.1993C10.0931 10.0747 10.8108 9.43795 11.6597 8.77532L11.6585 8.77758Z" fill="#494949"/>
</svg>
