<svg width="98" height="31" viewBox="0 0 98 31" fill="none" xmlns="http://www.w3.org/2000/svg">
<g clip-path="url(#clip0_156_3912)">
<path d="M13.7792 17.9765C12.9091 17.3975 12.2078 16.9416 11.4545 16.4364C12.7532 16.6459 13.9481 17.0032 15.1299 17.0032C16.3377 17.0032 17.5325 16.6582 18.8052 16.461C18.1039 16.9293 17.4026 17.4098 16.6623 17.8903C17.5584 18.2599 18.5455 18.3462 19.5325 18.3462C22.1558 18.3462 24.1429 17.2619 25.2468 14.9948C25.8442 13.775 26.1429 12.4444 26.5974 11.163C26.7013 10.8672 26.8701 10.5839 27.0649 10.3374C27.6883 9.53656 28.3247 8.74801 28.9481 7.9841C29.1558 9.41335 29.1688 10.9165 28.974 12.432C28.6623 14.7854 27.7662 16.8923 26.1299 18.7281C25.2338 19.7261 25.0519 20.5024 24.961 22.4368C23.9351 21.5866 23.987 20.4285 23.8182 19.2087C23.5325 20.1451 23.5195 20.9459 23.8571 21.6975C24.1429 22.3382 23.9351 22.8434 23.5844 23.3486C22.8571 24.3712 21.8442 25.0735 20.6494 25.4924C18.2468 26.3303 16.5974 27.9197 15.4286 30.0389C15.3636 30.1622 15.2857 30.2854 15.1948 30.4579C15.1169 30.3716 15.0519 30.3223 15.026 30.2484C13.8312 27.9813 12.0779 26.2933 9.50649 25.4062C8.28571 24.9873 7.2987 24.211 6.61039 23.1391C6.33766 22.7079 6.22078 22.2889 6.44156 21.7591C6.76623 20.9952 6.80519 20.1697 6.48052 19.184C6.36364 20.4654 6.33766 21.5866 5.31169 22.4984C5.31169 22.1041 5.32468 21.8084 5.31169 21.5127C5.27273 20.4531 4.87013 19.492 4.15584 18.6912C1.81818 16.1037 1.11688 13.0481 1.22078 9.74602C1.23377 9.12997 1.2987 8.52623 1.33766 8.00874C2.06494 8.84658 2.80519 9.70906 3.53247 10.5715C3.64935 10.7194 3.66234 10.9535 3.72727 11.1506C4.18182 12.469 4.50649 13.849 5.12987 15.0934C6.28571 17.3975 8.37662 18.4201 11.039 18.3339C11.9091 18.3092 12.7922 18.1121 13.7792 17.9765Z" fill="#9DB93B"/>
<path d="M7.74025 0.197127C9.75323 0.147842 11.8312 0.566761 13.8571 1.2321C14.9091 1.5771 15.8831 1.39228 16.8831 1.09657C21.1818 -0.184828 25.4156 -0.209471 29.5454 1.68799C29.961 1.88512 30.1169 2.11923 29.974 2.50118C29.7922 2.95706 29.6623 3.47455 29.3376 3.80722C28.935 4.21382 28.7662 4.59578 28.7013 5.12558C28.4675 6.88751 27.8831 8.52622 26.4675 9.78298C24.7532 11.2985 21.5195 11.5942 19.4415 10.4606C17.974 9.65977 17.1558 8.46461 16.8571 6.91215C16.7792 6.49323 16.6493 6.07431 16.4805 5.68004C16.2597 5.13791 15.9221 4.74363 15.2078 4.74363C14.4935 4.73131 14.0519 5.01469 13.8182 5.61843C13.6753 5.98806 13.5065 6.3577 13.4545 6.72733C12.961 10.473 8.93505 11.8036 5.83115 10.8426C3.46752 10.1156 2.41557 8.39069 1.79219 6.29609C1.74025 6.1236 1.70128 5.93878 1.67531 5.75396C1.57141 4.95309 1.51947 4.12757 0.727259 3.58544C0.584401 3.48687 0.532453 3.27741 0.454531 3.10492C0.0519339 2.14387 0.142843 1.94673 1.11687 1.51549C3.24674 0.591404 5.19479 0.197127 7.74025 0.197127ZM23.1039 1.03496C21.6104 1.24442 20.1688 1.39228 18.7532 1.65102C17.4805 1.88512 17.026 2.52582 17.0779 3.74562C17.0909 4.09061 17.0909 4.44792 17.1428 4.79291C17.2987 6.06199 17.4675 7.33107 18.1948 8.43997C19.3766 10.2758 22.1039 10.6578 24.3247 10.1526C24.948 10.0048 25.6234 9.68441 26.0389 9.24085C27.5584 7.6391 28.1818 5.70468 27.974 3.5608C27.8701 2.56279 27.3376 1.79888 26.2467 1.5771C25.1948 1.35531 24.1299 1.21978 23.1039 1.03496ZM13.3376 3.89347C13.2208 2.5135 12.974 2.0453 11.7662 1.72495C9.35064 1.09657 6.87012 0.924074 4.40258 1.45388C2.987 1.74959 2.3896 2.50118 2.29869 3.89347C2.1818 5.5445 2.70128 7.06 3.5844 8.45229C3.987 9.08067 4.49349 9.59816 5.25973 9.93083C6.53245 10.473 7.84414 10.473 9.12986 10.2389C10.7662 9.94315 12.0779 9.12996 12.5325 7.49124C12.8571 6.29609 13.0779 5.08862 13.3376 3.89347Z" fill="#9DB93B"/>
<path d="M23.5714 13.812C22.8441 14.7853 21.961 15.1919 20.948 15.3028C19.6363 15.4384 18.3506 15.2782 17.1688 14.6868C15.8182 14.0091 14.5195 14.0214 13.1558 14.6745C11.7922 15.3275 10.3247 15.5246 8.80517 15.1919C7.92206 14.9948 7.2727 14.5389 6.83115 13.8366C7.99998 14.0584 8.83115 13.4547 9.6753 12.9002C10.1298 12.5922 10.5974 12.2965 11.0519 11.9884C12.1039 11.2738 13.1169 11.4217 14.1039 12.1117C14.4675 12.3704 14.7792 12.6784 15.1428 12.9865C15.5324 12.6784 15.9091 12.3211 16.3376 12.0254C17.2208 11.434 18.1558 11.2861 19.1039 11.9145C19.7013 12.3088 20.3117 12.7031 20.9091 13.0974C21.6623 13.5902 22.4285 14.0461 23.5714 13.812Z" fill="#9DB93B"/>
<path d="M22.6883 3.64704C22.5844 5.02701 23.0519 5.49521 24.4675 5.39664C24.4805 6.20984 24.0909 6.78893 23.5065 7.08464C23.0779 6.76429 22.7532 6.33305 22.3636 6.27144C22.039 6.22216 21.6493 6.61644 21.2338 6.85054C20.6104 6.44394 20.3377 5.66771 20.6234 4.86683C20.9091 4.0906 21.6883 3.61008 22.6883 3.64704Z" fill="#E50040"/>
<path d="M6.4935 6.87519C5.84415 6.37002 5.61038 5.55682 5.97402 4.74363C6.31168 3.99204 7.05194 3.58544 7.83116 3.64705C7.987 4.13989 7.99999 4.68202 8.29869 4.99005C8.59739 5.29808 9.16882 5.37201 9.71428 5.58146C9.7922 6.17288 9.48051 6.69037 8.77921 7.08464C8.3896 6.77662 8.06493 6.32073 7.70129 6.28377C7.33765 6.24681 6.93506 6.64108 6.4935 6.87519Z" fill="#E50040"/>
<path d="M32.9351 11.0274V2.57513H37.4026C38.6364 2.57513 39.6883 2.98173 40.5584 3.80725C41.4416 4.63277 41.8831 5.63078 41.8831 6.80129C41.8831 7.98412 41.4416 8.96981 40.5584 9.783C39.6753 10.6085 38.6234 11.0151 37.4026 11.0151H35.4935V14.6622H32.9351V11.0274ZM37.4156 4.97776H35.5065V8.62482L37.4156 8.63714C38.4675 8.63714 39.3377 7.7993 39.3377 6.81361C39.3377 5.82792 38.4545 4.97776 37.4156 4.97776Z" fill="#E5E5E5"/>
<path d="M53.5584 4.28777C54.8312 5.49524 55.4675 6.93682 55.4675 8.62481C55.4675 10.3251 54.8312 11.7667 53.5584 12.9619C52.2987 14.157 50.7662 14.7484 48.987 14.7484C47.1948 14.7484 45.6753 14.1447 44.4156 12.9619C43.1558 11.7667 42.5195 10.3128 42.5195 8.62481C42.5195 6.93682 43.1558 5.49524 44.4156 4.28777C45.6883 3.0803 47.2078 2.47656 48.987 2.47656C50.7662 2.47656 52.2857 3.0803 53.5584 4.28777ZM46.2467 6.01273C45.4935 6.73968 45.1039 7.61448 45.1039 8.61249C45.1039 9.62283 45.4805 10.4976 46.2467 11.2123C47 11.9269 47.9091 12.2842 48.987 12.2842C50.0519 12.2842 50.961 11.9269 51.7273 11.2123C52.4935 10.4976 52.8701 9.63515 52.8701 8.61249C52.8701 7.60216 52.4935 6.73968 51.7273 6.01273C50.974 5.2981 50.0519 4.92847 48.987 4.92847C47.9091 4.92847 47 5.28578 46.2467 6.01273Z" fill="#E5E5E5"/>
<path d="M56.5584 2.57513H60.7143C62.1299 2.57513 63.2857 3.0803 64.0519 3.80725C64.8312 4.54652 65.2857 5.21186 65.2857 6.55486V6.87521C65.2857 7.68841 65.013 8.45232 64.4805 9.17927C64.039 9.77068 63.6753 10.0294 62.961 10.3005L65.9221 14.6745H62.7922L59.1299 9.32712V14.6622H56.5714L56.5584 2.57513ZM62.6364 6.61647C62.6364 6.17291 62.4675 5.79095 62.1299 5.45828C61.7922 5.15025 61.1688 4.97776 60.5455 4.97776H59.1039V8.31679H60.0909V8.32911H60.9481C61.8961 8.32911 62.6364 7.54056 62.6364 6.61647Z" fill="#E5E5E5"/>
<path d="M74.6883 9.25318V2.53816H77.2598V14.9086L69.5844 7.97178V14.6868H67.013V2.31638L74.6883 9.25318Z" fill="#E5E5E5"/>
<path d="M32.9221 24.0386V15.7341H37.3117C38.5325 15.7341 39.5585 16.1407 40.4156 16.9539C41.2727 17.7671 41.7143 18.7528 41.7143 19.8986C41.7143 21.0568 41.2857 22.0302 40.4156 22.8311C39.5585 23.6443 38.5195 24.0509 37.3117 24.0509H35.4416V27.5994H32.9351V24.0386H32.9221ZM37.3117 18.1121H35.4416V21.6852L37.3117 21.6975C38.3377 21.6975 39.1948 20.8843 39.1948 19.911C39.1948 18.9376 38.3377 18.1121 37.3117 18.1121Z" fill="#E5E5E5"/>
<path d="M45.4546 15.5L51.1689 27.5994H48.4416L47.5974 25.8005H43.3117L42.4676 27.5994H39.7533L45.4546 15.5ZM46.6104 23.6936L45.4676 21.18L44.3117 23.6936H46.6104Z" fill="#E5E5E5"/>
<path d="M51.9091 15.7464L54.1948 19.8617L56.4805 15.7464H59.3247L55.4416 22.5231V27.5994H52.9481V22.5107L49.0779 15.7341H51.9091V15.7464Z" fill="#E5E5E5"/>
<path d="M63.1039 25.2707C63.7922 25.2707 64.5585 24.7285 64.5585 24.0632C64.5585 22.9789 63.026 22.8311 62.1559 22.5477C60.6364 22.0549 59.2857 20.872 59.2857 19.258C59.2857 17.2619 61 15.6479 63.1039 15.6479C65.026 15.6479 66.6234 17.0032 66.8701 18.7651L64.3766 19.2703C64.3766 18.6173 63.8052 18.0751 63.1169 18.0751C62.4156 18.0751 61.8442 18.6173 61.8442 19.2826C61.8442 20.3545 63.2727 20.6379 64.1429 20.8843C65.7143 21.3156 67.1169 22.4615 67.1169 24.1125C67.1169 26.1085 65.2208 27.7226 63.1169 27.7226C61.1818 27.7226 59.4416 26.3796 59.1559 24.6053L61.6494 24.1002C61.6494 24.7409 62.4156 25.283 63.1039 25.2707Z" fill="#E5E5E5"/>
<path d="M68.2078 15.7464H70.7143V27.5994H68.2078V15.7464Z" fill="#E5E5E5"/>
<path d="M80.4805 15.7464V18.1121H77.4026V27.5994H74.8831V18.1121H71.8052V15.7464H80.4805Z" fill="#E5E5E5"/>
<path d="M89.1039 15.7218V18.0998H84.0779V20.4901H87.8442V22.868H84.0779V25.2583H89.1039V27.624H81.5714V15.7218H89.1039Z" fill="#E5E5E5"/>
<path d="M93.6623 25.2707C94.3507 25.2707 95.1169 24.7285 95.1169 24.0632C95.1169 22.9789 93.5844 22.8311 92.7143 22.5477C91.1948 22.0549 89.8442 20.872 89.8442 19.258C89.8442 17.2619 91.5585 15.6479 93.6623 15.6479C95.5844 15.6479 97.1818 17.0032 97.4286 18.7651L94.9351 19.2703C94.9351 18.6173 94.3636 18.0751 93.6753 18.0751C92.974 18.0751 92.4026 18.6173 92.4026 19.2826C92.4026 20.3545 93.8312 20.6379 94.7013 20.8843C96.2727 21.3156 97.6753 22.4615 97.6753 24.1125C97.6753 26.1085 95.7792 27.7226 93.6753 27.7226C91.7403 27.7226 90 26.3796 89.7143 24.6053L92.2078 24.1002C92.2208 24.7409 92.974 25.283 93.6623 25.2707Z" fill="#E5E5E5"/>
</g>
<defs>
<clipPath id="clip0_156_3912">
<rect width="98" height="31" fill="white"/>
</clipPath>
</defs>
</svg>
