<svg width="18" height="18" viewBox="0 0 18 18" fill="none" xmlns="http://www.w3.org/2000/svg">
<g clip-path="url(#clip0_156_3945)">
<mask id="mask0_156_3945" style="mask-type:luminance" maskUnits="userSpaceOnUse" x="0" y="0" width="18" height="18">
<path d="M17.6559 0.346161H0.4104V17.6539H17.6559V0.346161Z" fill="white"/>
</mask>
<g mask="url(#mask0_156_3945)">
<path d="M7.42599 0.346161H7.4282V0.347172C9.36486 0.34775 11.1185 1.15636 12.3875 2.46297C13.6544 3.76771 14.4392 5.5713 14.4404 7.56333H14.4414V7.56804V7.57385H14.4404C14.4398 8.37665 14.3117 9.14934 14.0764 9.86982C14.037 9.9907 13.9957 10.1069 13.9533 10.2178V10.2189C13.7504 10.7476 13.488 11.2475 13.1748 11.7079L17.2563 15.4843L17.2589 15.4866L17.2809 15.5077L17.2824 15.5093C17.5129 15.7351 17.6384 16.0375 17.6542 16.3444C17.6696 16.6477 17.578 16.9581 17.3765 17.207L17.3749 17.2093L17.3504 17.2386L17.3454 17.2437L17.3249 17.2668L17.3227 17.2698C17.1031 17.5071 16.8099 17.6359 16.5116 17.6521C16.2173 17.6682 15.9155 17.5741 15.6735 17.3663L15.6714 17.3647L15.6428 17.3395L15.6387 17.336L11.4641 13.4737C11.3406 13.5633 11.2146 13.6484 11.087 13.7287C10.914 13.8378 10.7348 13.9405 10.5519 14.0343C9.61174 14.5171 8.54933 14.7887 7.42613 14.7887V14.7897H7.42391V14.7887C5.48726 14.7881 3.73336 13.9795 2.46436 12.6728C1.19704 11.3681 0.412646 9.56424 0.411383 7.57282H0.4104V7.56804V7.56575H0.411383C0.411944 5.57218 1.19746 3.7667 2.46674 2.46038C3.7342 1.15636 5.48627 0.348473 7.42135 0.347172V0.346161H7.42599ZM7.4282 1.9657V1.96671H7.42599H7.42135V1.9657C5.92162 1.96671 4.56224 2.59416 3.57814 3.60676C2.59418 4.61937 1.9841 6.02018 1.98367 7.56589H1.98466V7.56818V7.57295H1.98367C1.98466 9.1168 2.59376 10.5155 3.57786 11.5288C4.56154 12.5419 5.92233 13.1698 7.42377 13.1701V13.1692H7.42599H7.43063V13.1701C8.93037 13.1692 10.2892 12.542 11.2736 11.5291C12.2575 10.5164 12.8676 9.11611 12.8679 7.57053H12.867V7.56818V7.56347H12.8679C12.867 6.01961 12.2574 4.62024 11.2738 3.6072C10.2901 2.59416 8.92982 1.96613 7.4282 1.9657Z" fill="#4C4C4C" fill-opacity="0.85"/>
</g>
</g>
<defs>
<clipPath id="clip0_156_3945">
<rect width="18" height="18" fill="white"/>
</clipPath>
</defs>
</svg>
