<svg width="19" height="20" viewBox="0 0 19 20" fill="none" xmlns="http://www.w3.org/2000/svg">
<path d="M17.4266 15.1733C16.9872 14.6201 16.6666 14.0183 16.4884 13.3435C16.2747 12.529 16.34 11.7144 16.4588 10.8998C16.6013 9.89674 16.7378 8.88762 16.5716 7.87242C16.4172 6.91802 16.1203 6.0244 15.5147 5.28884C15.865 4.58975 16.435 3.11255 16.2866 2.11558C16.0966 0.83291 15.7225 1.92713 15.7225 1.92713C15.7225 1.92713 14.7844 3.96969 13.6028 3.96969C13.5553 3.96969 13.5138 3.97577 13.4781 3.97577C13.2169 3.9089 12.9497 3.86634 12.6706 3.84811C12.5578 3.84203 12.4213 3.81771 12.3441 3.75084C11.5069 3.00312 10.5331 2.52288 9.38125 2.36482C9.04281 2.36482 8.71032 2.36482 8.37188 2.36482C7.79 2.46209 7.19625 2.5168 6.63219 2.66878C5.94938 2.85115 5.34969 3.11255 4.82719 3.44081C3.59813 2.88154 2.73719 1.68397 2.73719 1.68397C2.73719 1.68397 2.15531 0.589748 1.85844 1.87242C1.62094 2.91802 2.6125 4.50464 3.14094 5.14902C2.86188 5.60495 2.64219 6.12166 2.48188 6.68701C2.17313 7.78732 2.19094 8.90586 2.35125 10.0305C2.46406 10.8208 2.52344 11.6232 2.54125 12.4256C2.565 13.4469 2.17313 14.3527 1.55563 15.1855C1.29438 15.5381 1.33 15.684 1.72781 15.8846C2.82625 16.4378 4.01969 16.7174 5.23688 16.9241C5.62282 16.991 6.02063 17.0153 6.40657 17.0882C6.53719 17.1125 6.66782 17.2098 6.76282 17.301C7.33282 17.8663 7.96219 18.3405 8.7875 18.5533C8.90032 18.5837 9.01313 18.6019 9.13188 18.6323C9.32782 18.6323 9.52969 18.6323 9.72563 18.6323C10.7291 18.4682 11.4891 17.9393 12.1541 17.2524C12.2372 17.1673 12.3797 17.1004 12.5044 17.0882C13.7097 16.9423 14.9031 16.7296 16.055 16.3587C16.4528 16.2311 16.8447 16.067 17.2247 15.8967C17.6522 15.7083 17.6997 15.5138 17.4266 15.1733ZM13.3 13.7144C12.8784 15.0214 12.2609 16.2432 11.1744 17.1977C10.7766 17.5502 10.3194 17.8116 9.76125 17.9089C9.17344 18.0122 8.645 17.8603 8.19969 17.5381C6.70938 16.4621 5.62875 15.1247 5.32594 13.3435C5.25469 12.9241 5.26063 12.4742 5.33782 12.0548C5.48625 11.2706 6.09188 10.8208 6.85188 10.5654C7.48125 10.3527 8.13438 10.1946 8.78156 10.0426C10.1591 9.72045 11.2516 9.05175 11.97 7.88458C11.9819 7.86027 12.0116 7.84811 12.065 7.79948C12.6944 8.43169 13.1219 9.14902 13.3713 9.95145C13.7572 11.222 13.6978 12.4742 13.3 13.7144Z" fill="#E50040"/>
</svg>
