<svg width="16" height="16" viewBox="0 0 16 16" fill="none" xmlns="http://www.w3.org/2000/svg">
<path d="M2.70979 2.24193C2.90515 2.18574 3.27227 2.25754 3.64087 2.29008C3.84756 2.30834 4.05652 2.30174 4.26448 2.3026C4.40192 2.30315 4.50017 2.23772 4.55169 2.10893C4.66998 1.81328 4.78176 1.51483 4.90702 1.22243C4.98148 1.04845 5.06272 0.874199 5.16514 0.715588C5.41506 0.328833 5.84276 0.1879 6.26075 0.378805C6.52651 0.499956 6.76848 0.674309 7.01716 0.830505C7.21013 0.951728 7.39687 1.0829 7.58748 1.20813C7.67999 1.26891 7.77947 1.27026 7.87049 1.21241C8.0424 1.10368 8.21373 0.993028 8.37772 0.872976C8.62263 0.694269 8.84569 0.481028 9.10544 0.328543C9.60468 0.0354111 10.0777 0.156143 10.3771 0.654437C10.5597 0.958188 10.6786 1.29892 10.8465 1.61222C11.1151 2.11331 11.1118 2.11133 11.6645 2.05858C12.0181 2.02498 12.3673 1.93419 12.7208 1.91404C13.2658 1.88304 13.6125 2.15625 13.6987 2.66392C13.7314 2.85779 13.7213 3.06173 13.7111 3.25971C13.6976 3.52019 13.6646 3.77943 13.6401 4.03908C13.6078 4.37719 13.773 4.5591 14.0867 4.66507C14.4326 4.78182 14.7708 4.92538 15.102 5.08005C15.2397 5.14436 15.3691 5.25091 15.4687 5.36714C15.7015 5.63889 15.7362 5.96377 15.5797 6.27494C15.4269 6.57872 15.2243 6.85735 15.0414 7.1458C14.955 7.28225 14.8651 7.41645 14.7741 7.5498C14.6924 7.66957 14.6919 7.79329 14.7675 7.91053C14.878 8.08133 14.9944 8.24886 15.115 8.41271C15.2861 8.64562 15.4882 8.85957 15.6329 9.10741C15.927 9.61179 15.8109 10.0775 15.3108 10.3786C15.0075 10.5614 14.6659 10.6794 14.3532 10.8483C13.8478 11.1212 13.8579 11.1101 13.9084 11.6671C13.9405 12.0208 14.0311 12.3702 14.0499 12.7241C14.0784 13.2697 13.8196 13.603 13.3132 13.6969C13.1157 13.7334 12.9066 13.7219 12.7035 13.7126C12.4243 13.7001 12.1457 13.6702 11.8673 13.6458C11.5723 13.6197 11.4188 13.773 11.3211 14.0365C11.1821 14.4103 11.0479 14.7899 10.8623 15.141C10.5845 15.6663 10.1168 15.7974 9.58151 15.5389C9.44542 15.4732 9.31667 15.3894 9.19055 15.3054C8.92941 15.1319 8.67214 14.9523 8.41318 14.7751C8.29376 14.6935 8.17241 14.6929 8.05381 14.7728C7.88116 14.889 7.70396 14.9999 7.5417 15.1296C7.25298 15.3604 6.99002 15.6279 6.6233 15.7407C6.25693 15.8537 5.9177 15.7725 5.69777 15.4569C5.50969 15.187 5.37645 14.8787 5.22112 14.5861C5.19238 14.5318 5.17903 14.4694 5.15056 14.4151C4.84317 13.8258 4.82602 13.8322 4.10042 13.9346C3.76793 13.9815 3.43254 14.0463 3.09914 14.0421C2.60306 14.0358 2.2809 13.7137 2.25375 13.2167C2.23727 12.9155 2.28192 12.6112 2.29384 12.3082C2.30188 12.1052 2.30316 11.9016 2.30299 11.6981C2.30298 11.5608 2.23564 11.4632 2.10713 11.4115C1.8115 11.2932 1.51277 11.1824 1.2205 11.0565C1.04225 10.9797 0.863928 10.8958 0.702166 10.7899C0.325286 10.5429 0.18922 10.1116 0.377876 9.70197C0.496055 9.44515 0.66297 9.2102 0.814768 8.96971C0.939044 8.77311 1.07434 8.5833 1.20297 8.38925C1.27002 8.28796 1.27084 8.18087 1.20566 8.08044C1.09202 7.90612 0.977013 7.73221 0.854075 7.5646C0.683184 7.33161 0.480435 7.11846 0.333933 6.87147C0.0370452 6.37062 0.151706 5.90029 0.639868 5.59233C0.871457 5.44632 1.13027 5.34367 1.37661 5.22063C1.54187 5.1381 1.70774 5.05657 1.87085 4.96991C2.03132 4.88436 2.0945 4.74097 2.07342 4.56683C2.041 4.29855 1.99018 4.03258 1.96128 3.76412C1.93594 3.52891 1.90751 3.29045 1.91982 3.0554C1.94027 2.6618 2.16318 2.40593 2.71071 2.24105L2.70979 2.24193ZM10.7351 7.2342C10.7209 7.23645 10.7064 7.23905 10.6922 7.24129C10.667 7.2027 10.6406 7.16479 10.6169 7.12542C10.3725 6.71844 10.1311 6.30964 9.88335 5.90456C9.76038 5.70353 9.56221 5.65343 9.38413 5.76643C9.22507 5.86737 9.18699 6.07265 9.29808 6.2582C9.77125 7.048 10.2452 7.83727 10.7203 8.62559C10.8299 8.80739 10.9664 8.87149 11.1324 8.82872C11.3007 8.78555 11.3795 8.6777 11.387 8.46502C11.3976 8.16157 11.4024 7.85778 11.4108 7.55408C11.4121 7.50652 11.4186 7.45919 11.4227 7.4117C11.4885 7.4445 11.5198 7.48389 11.5489 7.52457C11.728 7.77567 11.9028 8.03017 12.0865 8.27777C12.2201 8.45795 12.4221 8.48927 12.5853 8.36378C12.7041 8.2727 12.7207 8.142 12.7136 8.0039C12.6869 7.47783 12.6607 6.95158 12.6337 6.42559C12.6133 6.02739 12.5962 5.6291 12.5693 5.23172C12.5555 5.02968 12.4057 4.89352 12.2283 4.89978C12.0329 4.90674 11.9031 5.04205 11.8922 5.25248C11.8899 5.29496 11.8931 5.33785 11.8951 5.38053C11.9171 5.81165 11.9395 6.24296 11.9612 6.67416C11.9642 6.73592 11.9634 6.79795 11.9643 6.85975C11.9009 6.83189 11.8715 6.79725 11.8455 6.76071C11.7047 6.56391 11.5664 6.36519 11.4242 6.1697C11.3093 6.01188 11.1779 5.96146 11.0188 6.00749C10.8576 6.05419 10.7673 6.17717 10.7598 6.37314C10.7512 6.60078 10.7483 6.82849 10.7424 7.0562C10.7408 7.11549 10.7376 7.17466 10.735 7.23393L10.7351 7.2342ZM5.74516 8.97367C5.73502 8.98154 5.72452 8.98921 5.71438 8.99707C5.64187 8.94513 5.5689 8.89362 5.49677 8.84097C4.9364 8.43137 4.37577 8.02185 3.81597 7.61117C3.70876 7.53249 3.59585 7.50269 3.4685 7.55489C3.27615 7.63373 3.20863 7.80112 3.28158 8.04274C3.53477 8.8804 3.7905 9.71759 4.04615 10.5545C4.0612 10.6039 4.08423 10.6521 4.1106 10.6966C4.20113 10.8499 4.36547 10.9026 4.52803 10.8337C4.70857 10.7573 4.77522 10.5851 4.70573 10.3528C4.57524 9.91534 4.44058 9.47882 4.30763 9.04208C4.28618 8.97161 4.26465 8.90086 4.2432 8.83039C4.25271 8.82243 4.26258 8.81465 4.27209 8.80668C4.30898 8.82887 4.34757 8.84876 4.38239 8.87398C4.96217 9.29737 5.54185 9.72139 6.12125 10.1455C6.30174 10.2777 6.44943 10.2933 6.59185 10.1935C6.72194 10.1023 6.75729 9.95278 6.69841 9.74269C6.69206 9.71985 6.68453 9.69707 6.67763 9.6744C6.4366 8.88258 6.19557 8.09076 5.95408 7.29937C5.93471 7.23573 5.92206 7.16378 5.88262 7.1146C5.82867 7.04716 5.75996 6.98123 5.68306 6.94525C5.56539 6.89004 5.44795 6.93265 5.35351 7.01452C5.22958 7.12208 5.22674 7.26471 5.26966 7.40863C5.41128 7.88272 5.55665 8.35538 5.70073 8.82872C5.71545 8.87707 5.73017 8.92541 5.74488 8.97376L5.74516 8.97367ZM7.35261 7.08914C7.39758 7.07217 7.43604 7.05539 7.47591 7.04326C7.7352 6.96373 7.99546 6.88839 8.25325 6.80395C8.33249 6.77804 8.41536 6.74147 8.47675 6.68727C8.5937 6.58423 8.60869 6.4188 8.53354 6.28171C8.45503 6.13848 8.29699 6.08004 8.09832 6.13813C7.68287 6.25951 7.26843 6.38418 6.85631 6.51649C6.6084 6.59613 6.52766 6.75441 6.60269 7.00286C6.85922 7.85442 7.1184 8.70489 7.37957 9.55504C7.4601 9.81763 7.61608 9.89968 7.88213 9.82377C8.11989 9.75587 8.35576 9.68079 8.59219 9.60853C8.77408 9.55316 8.95903 9.50492 9.13705 9.43879C9.3499 9.35967 9.43243 9.1916 9.36879 9.00116C9.30944 8.82285 9.13973 8.73783 8.9298 8.79128C8.77333 8.83115 8.6197 8.88328 8.46513 8.93034C8.29826 8.98113 8.13139 9.03193 7.96425 9.0828L7.7588 8.40788C8.08244 8.30937 8.39646 8.21557 8.70905 8.11804C8.92431 8.05072 9.02665 7.87422 8.96741 7.68156C8.90825 7.48916 8.72647 7.40273 8.50791 7.46508C8.38443 7.50058 8.26203 7.53963 8.1394 7.57696C7.9455 7.63598 7.75159 7.69501 7.55605 7.75453L7.35343 7.0889L7.35261 7.08914Z" fill="white"/>
</svg>
