<svg width="21" height="13" viewBox="0 0 21 13" fill="none" xmlns="http://www.w3.org/2000/svg">
<g clip-path="url(#clip0_159_8404)">
<path d="M0 12.0507C0 8.35025 0 4.65013 0 0.949638C0.24972 0.309042 0.720643 0 1.41508 0C7.4708 0.0022892 13.5269 0.0011446 19.5826 0.00190767C20.0582 0.00190767 20.474 0.148417 20.7441 0.554369C20.8605 0.729493 20.9164 0.943915 20.9996 1.1404V11.86C20.9002 12.2774 20.7117 12.649 20.3033 12.8302C20.0716 12.9332 19.7988 12.9897 19.5445 12.9912C17.406 13.0038 15.2676 12.9985 13.1296 12.9985C9.21229 12.9985 5.29538 12.9985 1.37809 12.9977C0.925275 12.9977 0.528343 12.8626 0.248564 12.4929C0.147212 12.359 0.0816986 12.1988 0 12.0507ZM19.6843 5.21366H1.28598V11.689H19.6843V5.21366ZM19.6797 1.31209H1.28752V2.58604H19.6797V1.31209Z" fill="#E50040"/>
<path d="M15.0425 6.97234C15.3443 6.83346 15.6102 6.67589 15.8973 6.58432C16.9887 6.23751 18.1949 7.04826 18.3506 8.17188C18.4955 9.21767 17.7293 10.3363 16.4885 10.3916C16.0356 10.4119 15.6102 10.2947 15.251 10.0101C15.1281 9.91282 15.0502 9.9113 14.9231 10.0029C14.2818 10.4653 13.5885 10.5301 12.8829 10.1803C12.1515 9.81744 11.7815 9.19706 11.8023 8.39508C11.8228 7.60759 12.2193 7.01393 12.9481 6.68581C13.6359 6.376 14.3057 6.45231 14.9246 6.89451C14.9763 6.93152 15.0306 6.96471 15.0422 6.97234H15.0425Z" fill="#E50040"/>
<path d="M5.20597 9.11621V10.389H2.60086V9.11621H5.20597Z" fill="#E50040"/>
<path d="M9.16296 9.11768V10.3878H6.55862V9.11768H9.16296Z" fill="#E50040"/>
</g>
<defs>
<clipPath id="clip0_159_8404">
<rect width="21" height="13" fill="white"/>
</clipPath>
</defs>
</svg>
