<svg width="22" height="21" viewBox="0 0 22 21" fill="none" xmlns="http://www.w3.org/2000/svg">
<path d="M18.2353 8.78875C18.402 8.39536 18.2911 8.00342 17.9433 7.75451C17.5729 7.48934 17.1998 7.22741 16.8243 6.96985C16.7353 6.90875 16.693 6.84357 16.6873 6.73138C16.6643 6.28122 16.6331 5.83138 16.5982 5.38191C16.5628 4.9271 16.2885 4.64096 15.8376 4.57933C15.3768 4.51637 14.9155 4.45881 14.4555 4.3906C14.3966 4.3818 14.3247 4.33682 14.293 4.28705C14.0391 3.88764 13.7971 3.48084 13.5443 3.08063C13.3166 2.72011 12.928 2.59505 12.526 2.74347C12.0939 2.90319 11.6633 3.06681 11.2288 3.21928C11.1647 3.24161 11.0692 3.23518 11.0107 3.20238C10.6627 3.00669 10.3158 2.80842 9.97979 2.59309C9.7071 2.41835 9.42831 2.3164 9.10345 2.39763C9.0688 2.41202 9.0339 2.42653 8.99925 2.44092C8.60919 2.85043 8.21617 3.2572 7.83205 3.67218C7.75314 3.7572 7.68094 3.78781 7.56672 3.77907C7.22561 3.75281 6.8835 3.7352 6.54148 3.72368C6.32802 3.71646 6.11385 3.72665 5.90009 3.72902L5.76985 3.78314C5.54415 3.93466 5.38753 4.12895 5.32567 4.40422C5.22987 4.83014 5.11116 5.25091 5.01026 5.67558C4.98477 5.78331 4.93121 5.84039 4.83174 5.88477C4.41165 6.07278 3.9947 6.26833 3.57796 6.46441C3.23015 6.62787 3.02745 7.00015 3.10651 7.35433C3.21248 7.82989 3.32952 8.30268 3.44719 8.77551C3.46843 8.86046 3.46188 8.92336 3.40605 8.99482C3.12649 9.35414 2.85217 9.718 2.57631 10.0804C2.28516 10.4625 2.29849 10.8577 2.61377 11.2173C2.90165 11.5455 3.18617 11.8766 3.47865 12.2004C3.55846 12.2888 3.58542 12.3699 3.5625 12.4897C3.47932 12.9232 3.40801 13.3588 3.3337 13.7938C3.256 14.2485 3.45023 14.6013 3.8775 14.7717C4.30514 14.9422 4.73552 15.1061 5.16271 15.2777C5.2129 15.2978 5.27435 15.3413 5.29032 15.3878C5.43802 15.8182 5.59904 16.2462 5.71218 16.6861C5.82632 17.1298 6.24003 17.4182 6.72699 17.3427C7.14275 17.278 7.56337 17.2435 7.9811 17.1887C8.09813 17.1734 8.18177 17.1997 8.26668 17.2857C8.58714 17.6092 8.9152 17.9253 9.24113 18.2428C9.53733 18.5315 9.94457 18.5743 10.284 18.3487C10.6776 18.0867 11.0666 17.8173 11.463 17.5597C11.5205 17.5224 11.6155 17.5064 11.6812 17.5246C12.0479 17.6258 12.4123 17.7361 12.7745 17.852C13.0172 17.9295 13.2588 17.9956 13.5162 17.9424L13.6464 17.8883C13.8107 17.7757 13.9473 17.642 14.0406 17.46C14.2423 17.067 14.4569 16.6807 14.6611 16.2891C14.7073 16.2006 14.7687 16.1607 14.8653 16.1426C15.3212 16.057 15.7763 15.9678 16.2303 15.8732C16.6461 15.7866 16.8942 15.4809 16.9008 15.0542C16.908 14.5894 16.9128 14.1246 16.9141 13.6594C16.9142 13.573 16.9352 13.5154 17.0083 13.4584C17.3815 13.1677 17.7505 12.8714 18.1168 12.5726C18.4161 12.3282 18.5151 11.9122 18.3494 11.5797C18.1316 11.143 17.9023 10.7116 17.6852 10.2746C17.6591 10.2219 17.656 10.138 17.6786 10.0837C17.8597 9.64983 18.0523 9.22095 18.2357 8.78827L18.2353 8.78875ZM16.9436 10.0784C16.903 10.1689 16.9039 10.2416 16.9492 10.3287C17.1953 10.7989 17.4349 11.2724 17.6812 11.7425C17.7924 11.955 17.7884 11.9741 17.602 12.1267C17.2868 12.3848 16.9775 12.6498 16.6626 12.908C16.5687 12.9849 16.4671 13.0528 16.3655 13.1192C16.2787 13.1757 16.2462 13.246 16.2466 13.3528C16.249 13.8872 16.2432 14.4215 16.2393 14.9561C16.2376 15.1814 16.2162 15.2049 15.9884 15.2485C15.4581 15.3498 14.9272 15.4485 14.398 15.556C14.34 15.5679 14.271 15.6173 14.2426 15.6688C13.9734 16.1588 13.712 16.653 13.4482 17.1459C13.3622 17.3066 13.3341 17.3198 13.1573 17.2668C12.6307 17.109 12.1043 16.9508 11.5788 16.7895C11.492 16.7629 11.4271 16.7676 11.3468 16.8236C10.9043 17.1327 10.4554 17.4328 10.0091 17.7365C9.82907 17.8589 9.79258 17.8564 9.63641 17.7026C9.25252 17.3242 8.86986 16.9443 8.48297 16.569C8.44116 16.5287 8.37351 16.4923 8.31836 16.4926C8.185 16.4937 8.05157 16.5173 7.91839 16.5321C7.4801 16.5807 7.04164 16.6282 6.60369 16.6791C6.48512 16.693 6.39837 16.6658 6.37353 16.5508C6.19759 16.0054 6.02393 15.4743 5.85621 14.9413C5.82476 14.8413 5.7687 14.7895 5.67187 14.7527C5.1621 14.5595 4.65507 14.3597 4.14713 14.162C3.98131 14.0974 3.96294 14.0635 3.99388 13.8851C4.08751 13.3437 4.17889 12.802 4.27651 12.2614C4.2932 12.1693 4.27488 12.1039 4.21303 12.0337C3.85713 11.6293 3.50568 11.2209 3.15222 10.8143C3.00123 10.6406 2.99978 10.6216 3.13576 10.4438C3.4638 10.0152 3.79475 9.58842 4.11702 9.15545C4.15736 9.10111 4.17922 9.00742 4.16457 8.94203C4.04348 8.397 3.91418 7.85354 3.78139 7.31123C3.74904 7.17897 3.7813 7.09562 3.9059 7.03895C4.40629 6.81117 4.90303 6.57605 5.40558 6.35347C5.50854 6.30794 5.55471 6.2463 5.57985 6.1436C5.7086 5.61908 5.84244 5.0958 5.97455 4.57202C6.02088 4.38873 6.04848 4.3684 6.2374 4.37757C6.78094 4.40433 7.32455 4.42831 7.8677 4.46073C7.97386 4.46702 8.04012 4.4346 8.10891 4.35684C8.46294 3.95619 8.82269 3.5605 9.1808 3.16305C9.32436 3.00351 9.34799 3.0001 9.53792 3.1124C10.0029 3.38747 10.4683 3.66143 10.9313 3.93977C11.0103 3.98728 11.0757 3.994 11.1645 3.95987C11.6777 3.76309 12.1937 3.57344 12.7093 3.38301C12.8785 3.32062 12.9178 3.33943 13.0167 3.49936C13.3051 3.9663 13.5928 4.43384 13.8888 4.89613C13.9253 4.95306 14.0062 5.00525 14.0732 5.015C14.6166 5.09372 15.1619 5.16132 15.7064 5.23317C15.8939 5.25792 15.9205 5.28533 15.9342 5.47027C15.9745 6.02167 16.0109 6.57317 16.0575 7.12412C16.0628 7.1876 16.1064 7.2669 16.1576 7.30399C16.6029 7.62573 17.0537 7.93965 17.5031 8.25573C17.6709 8.37356 17.6792 8.40032 17.5949 8.5936C17.3789 9.089 17.1648 9.58517 16.9442 10.0785L16.9436 10.0784Z" fill="#9DB93B"/>
<rect x="6.09033" y="11.3901" width="2.02036" height="2.69381" fill="#9DB93B"/>
<rect x="9.45764" y="5.32904" width="2.02036" height="8.75488" fill="#9DB93B"/>
<rect x="12.8248" y="8.69632" width="2.02036" height="5.38762" fill="#9DB93B"/>
</svg>
