<svg width="18" height="15" viewBox="0 0 18 15" fill="none" xmlns="http://www.w3.org/2000/svg">
<g clip-path="url(#clip0_159_8224)">
<path d="M4.32197 4.22491C5.01836 6.30916 5.69558 8.33463 6.38915 10.4103C5.98349 10.4103 5.6122 10.4238 5.24259 10.3987C5.17442 10.3938 5.08878 10.2456 5.05498 10.1458C4.57495 8.73262 4.1028 7.31638 3.6008 5.81687C3.52361 6.0073 3.46502 6.13282 3.42107 6.26385C2.98781 7.55457 2.55229 8.84467 2.12972 10.1397C2.06211 10.3472 1.97253 10.4293 1.76857 10.417C1.46095 10.3987 1.1522 10.4121 0.784851 10.4121C1.44405 8.4375 2.08916 6.50571 2.74948 4.52616C2.58891 4.52616 2.47115 4.53106 2.3534 4.52493C2.05197 4.50962 1.83731 4.29655 1.80013 3.98244C1.7635 3.67201 1.92464 3.3879 2.20353 3.29851C2.31847 3.26177 2.44411 3.24462 2.56412 3.24707C3.63855 3.26912 4.58227 2.88888 5.43359 2.1878C6.05448 1.67654 6.68945 1.18058 7.44668 0.928312C7.72106 0.83708 7.92952 0.706661 8.11827 0.445212C8.57858 -0.190963 9.51216 -0.13157 9.94373 0.535219C10.0609 0.716458 10.1945 0.806466 10.3826 0.864634C11.1348 1.09792 11.7788 1.55347 12.3952 2.05983C13.0915 2.6311 13.8313 3.09951 14.7215 3.19931C15.001 3.23054 15.2832 3.2287 15.5638 3.25136C15.9199 3.28014 16.1402 3.47913 16.1858 3.79875C16.241 4.18388 16.0005 4.50411 15.6365 4.52493C15.5187 4.53167 15.4004 4.52616 15.2387 4.52616C15.8985 6.50081 16.5425 8.42831 17.2039 10.4085C16.7937 10.4085 16.4224 10.4195 16.0534 10.3975C15.9903 10.3938 15.9092 10.2578 15.8782 10.166C15.4376 8.86733 15.0049 7.56498 14.5688 6.26446C14.5254 6.13527 14.473 6.00975 14.3947 5.80279C14.0786 6.74205 13.7902 7.59559 13.5045 8.45097C13.3096 9.03448 13.1237 9.62167 12.918 10.2009C12.8865 10.2891 12.7732 10.3968 12.6921 10.4017C12.3473 10.4238 12.0008 10.4109 11.6002 10.4109C12.292 8.33953 12.9704 6.30916 13.6566 4.2543C13.4324 4.14837 13.2082 4.07183 13.0127 3.94448C12.4515 3.57894 11.9061 3.18339 11.3455 2.81663C10.9697 2.5711 10.5793 2.3519 10.1933 2.12474C10.0553 2.0433 9.94937 2.07024 9.82429 2.20311C9.33694 2.72111 8.66027 2.70703 8.15264 2.21229C8.07657 2.13821 7.91375 2.09106 7.82247 2.12657C7.55936 2.2276 7.29568 2.34945 7.06186 2.51354C6.18293 3.12951 5.38345 3.88876 4.32141 4.22368L4.32197 4.22491Z" fill="#E50040"/>
<path d="M3.58558 11.7443C4.53268 11.7443 5.48035 11.7425 6.42745 11.7443C7.09172 11.7461 7.34187 12.1962 7.0365 12.8348C6.31533 14.341 4.70621 15.1964 3.07738 14.9607C1.75899 14.7703 0.78428 14.0631 0.110998 12.8079C-0.198317 12.2305 0.181425 11.7296 0.713289 11.7394C1.67053 11.7559 2.62778 11.7443 3.58502 11.7443H3.58558Z" fill="#E50040"/>
<path d="M14.4116 11.7445C15.3688 11.7445 16.3266 11.7445 17.2839 11.7445C17.5053 11.7445 17.6974 11.7892 17.8541 12.0005C18.0259 12.2325 18.0422 12.4468 17.9228 12.7022C17.1351 14.3841 15.6122 15.1483 13.9507 14.9615C12.6983 14.8201 11.7173 14.1864 11.0452 13.0163C10.9956 12.9299 10.9505 12.8405 10.9105 12.7487C10.6739 12.208 10.9297 11.7525 11.4847 11.747C12.3005 11.739 13.1169 11.7445 13.9327 11.7445C14.0921 11.7445 14.2516 11.7445 14.4116 11.7445Z" fill="#E50040"/>
</g>
<defs>
<clipPath id="clip0_159_8224">
<rect width="18" height="15" fill="white"/>
</clipPath>
</defs>
</svg>
