<svg xmlns="http://www.w3.org/2000/svg">
  <symbol id="logo" width="98" height="31" viewBox="0 0 98 31" fill="none"
    xmlns="http://www.w3.org/2000/svg">
    <g clip-path="url(#clip0_156_3912)">
      <path d="M13.7792 17.9765C12.9091 17.3975 12.2078 16.9416 11.4545 16.4364C12.7532 16.6459 13.9481 17.0032 15.1299 17.0032C16.3377 17.0032 17.5325 16.6582 18.8052 16.461C18.1039 16.9293 17.4026 17.4098 16.6623 17.8903C17.5584 18.2599 18.5455 18.3462 19.5325 18.3462C22.1558 18.3462 24.1429 17.2619 25.2468 14.9948C25.8442 13.775 26.1429 12.4444 26.5974 11.163C26.7013 10.8672 26.8701 10.5839 27.0649 10.3374C27.6883 9.53656 28.3247 8.74801 28.9481 7.9841C29.1558 9.41335 29.1688 10.9165 28.974 12.432C28.6623 14.7854 27.7662 16.8923 26.1299 18.7281C25.2338 19.7261 25.0519 20.5024 24.961 22.4368C23.9351 21.5866 23.987 20.4285 23.8182 19.2087C23.5325 20.1451 23.5195 20.9459 23.8571 21.6975C24.1429 22.3382 23.9351 22.8434 23.5844 23.3486C22.8571 24.3712 21.8442 25.0735 20.6494 25.4924C18.2468 26.3303 16.5974 27.9197 15.4286 30.0389C15.3636 30.1622 15.2857 30.2854 15.1948 30.4579C15.1169 30.3716 15.0519 30.3223 15.026 30.2484C13.8312 27.9813 12.0779 26.2933 9.50649 25.4062C8.28571 24.9873 7.2987 24.211 6.61039 23.1391C6.33766 22.7079 6.22078 22.2889 6.44156 21.7591C6.76623 20.9952 6.80519 20.1697 6.48052 19.184C6.36364 20.4654 6.33766 21.5866 5.31169 22.4984C5.31169 22.1041 5.32468 21.8084 5.31169 21.5127C5.27273 20.4531 4.87013 19.492 4.15584 18.6912C1.81818 16.1037 1.11688 13.0481 1.22078 9.74602C1.23377 9.12997 1.2987 8.52623 1.33766 8.00874C2.06494 8.84658 2.80519 9.70906 3.53247 10.5715C3.64935 10.7194 3.66234 10.9535 3.72727 11.1506C4.18182 12.469 4.50649 13.849 5.12987 15.0934C6.28571 17.3975 8.37662 18.4201 11.039 18.3339C11.9091 18.3092 12.7922 18.1121 13.7792 17.9765Z" fill="#9DB93B"/>
      <path d="M7.74025 0.197127C9.75323 0.147842 11.8312 0.566761 13.8571 1.2321C14.9091 1.5771 15.8831 1.39228 16.8831 1.09657C21.1818 -0.184828 25.4156 -0.209471 29.5454 1.68799C29.961 1.88512 30.1169 2.11923 29.974 2.50118C29.7922 2.95706 29.6623 3.47455 29.3376 3.80722C28.935 4.21382 28.7662 4.59578 28.7013 5.12558C28.4675 6.88751 27.8831 8.52622 26.4675 9.78298C24.7532 11.2985 21.5195 11.5942 19.4415 10.4606C17.974 9.65977 17.1558 8.46461 16.8571 6.91215C16.7792 6.49323 16.6493 6.07431 16.4805 5.68004C16.2597 5.13791 15.9221 4.74363 15.2078 4.74363C14.4935 4.73131 14.0519 5.01469 13.8182 5.61843C13.6753 5.98806 13.5065 6.3577 13.4545 6.72733C12.961 10.473 8.93505 11.8036 5.83115 10.8426C3.46752 10.1156 2.41557 8.39069 1.79219 6.29609C1.74025 6.1236 1.70128 5.93878 1.67531 5.75396C1.57141 4.95309 1.51947 4.12757 0.727259 3.58544C0.584401 3.48687 0.532453 3.27741 0.454531 3.10492C0.0519339 2.14387 0.142843 1.94673 1.11687 1.51549C3.24674 0.591404 5.19479 0.197127 7.74025 0.197127ZM23.1039 1.03496C21.6104 1.24442 20.1688 1.39228 18.7532 1.65102C17.4805 1.88512 17.026 2.52582 17.0779 3.74562C17.0909 4.09061 17.0909 4.44792 17.1428 4.79291C17.2987 6.06199 17.4675 7.33107 18.1948 8.43997C19.3766 10.2758 22.1039 10.6578 24.3247 10.1526C24.948 10.0048 25.6234 9.68441 26.0389 9.24085C27.5584 7.6391 28.1818 5.70468 27.974 3.5608C27.8701 2.56279 27.3376 1.79888 26.2467 1.5771C25.1948 1.35531 24.1299 1.21978 23.1039 1.03496ZM13.3376 3.89347C13.2208 2.5135 12.974 2.0453 11.7662 1.72495C9.35064 1.09657 6.87012 0.924074 4.40258 1.45388C2.987 1.74959 2.3896 2.50118 2.29869 3.89347C2.1818 5.5445 2.70128 7.06 3.5844 8.45229C3.987 9.08067 4.49349 9.59816 5.25973 9.93083C6.53245 10.473 7.84414 10.473 9.12986 10.2389C10.7662 9.94315 12.0779 9.12996 12.5325 7.49124C12.8571 6.29609 13.0779 5.08862 13.3376 3.89347Z" fill="#9DB93B"/>
      <path d="M23.5714 13.812C22.8441 14.7853 21.961 15.1919 20.948 15.3028C19.6363 15.4384 18.3506 15.2782 17.1688 14.6868C15.8182 14.0091 14.5195 14.0214 13.1558 14.6745C11.7922 15.3275 10.3247 15.5246 8.80517 15.1919C7.92206 14.9948 7.2727 14.5389 6.83115 13.8366C7.99998 14.0584 8.83115 13.4547 9.6753 12.9002C10.1298 12.5922 10.5974 12.2965 11.0519 11.9884C12.1039 11.2738 13.1169 11.4217 14.1039 12.1117C14.4675 12.3704 14.7792 12.6784 15.1428 12.9865C15.5324 12.6784 15.9091 12.3211 16.3376 12.0254C17.2208 11.434 18.1558 11.2861 19.1039 11.9145C19.7013 12.3088 20.3117 12.7031 20.9091 13.0974C21.6623 13.5902 22.4285 14.0461 23.5714 13.812Z" fill="#9DB93B"/>
      <path d="M22.6883 3.64704C22.5844 5.02701 23.0519 5.49521 24.4675 5.39664C24.4805 6.20984 24.0909 6.78893 23.5065 7.08464C23.0779 6.76429 22.7532 6.33305 22.3636 6.27144C22.039 6.22216 21.6493 6.61644 21.2338 6.85054C20.6104 6.44394 20.3377 5.66771 20.6234 4.86683C20.9091 4.0906 21.6883 3.61008 22.6883 3.64704Z" fill="#E50040"/>
      <path d="M6.4935 6.87519C5.84415 6.37002 5.61038 5.55682 5.97402 4.74363C6.31168 3.99204 7.05194 3.58544 7.83116 3.64705C7.987 4.13989 7.99999 4.68202 8.29869 4.99005C8.59739 5.29808 9.16882 5.37201 9.71428 5.58146C9.7922 6.17288 9.48051 6.69037 8.77921 7.08464C8.3896 6.77662 8.06493 6.32073 7.70129 6.28377C7.33765 6.24681 6.93506 6.64108 6.4935 6.87519Z" fill="#E50040"/>
      <path d="M32.9351 11.0274V2.57513H37.4026C38.6364 2.57513 39.6883 2.98173 40.5584 3.80725C41.4416 4.63277 41.8831 5.63078 41.8831 6.80129C41.8831 7.98412 41.4416 8.96981 40.5584 9.783C39.6753 10.6085 38.6234 11.0151 37.4026 11.0151H35.4935V14.6622H32.9351V11.0274ZM37.4156 4.97776H35.5065V8.62482L37.4156 8.63714C38.4675 8.63714 39.3377 7.7993 39.3377 6.81361C39.3377 5.82792 38.4545 4.97776 37.4156 4.97776Z" fill="#E5E5E5"/>
      <path d="M53.5584 4.28777C54.8312 5.49524 55.4675 6.93682 55.4675 8.62481C55.4675 10.3251 54.8312 11.7667 53.5584 12.9619C52.2987 14.157 50.7662 14.7484 48.987 14.7484C47.1948 14.7484 45.6753 14.1447 44.4156 12.9619C43.1558 11.7667 42.5195 10.3128 42.5195 8.62481C42.5195 6.93682 43.1558 5.49524 44.4156 4.28777C45.6883 3.0803 47.2078 2.47656 48.987 2.47656C50.7662 2.47656 52.2857 3.0803 53.5584 4.28777ZM46.2467 6.01273C45.4935 6.73968 45.1039 7.61448 45.1039 8.61249C45.1039 9.62283 45.4805 10.4976 46.2467 11.2123C47 11.9269 47.9091 12.2842 48.987 12.2842C50.0519 12.2842 50.961 11.9269 51.7273 11.2123C52.4935 10.4976 52.8701 9.63515 52.8701 8.61249C52.8701 7.60216 52.4935 6.73968 51.7273 6.01273C50.974 5.2981 50.0519 4.92847 48.987 4.92847C47.9091 4.92847 47 5.28578 46.2467 6.01273Z" fill="#E5E5E5"/>
      <path d="M56.5584 2.57513H60.7143C62.1299 2.57513 63.2857 3.0803 64.0519 3.80725C64.8312 4.54652 65.2857 5.21186 65.2857 6.55486V6.87521C65.2857 7.68841 65.013 8.45232 64.4805 9.17927C64.039 9.77068 63.6753 10.0294 62.961 10.3005L65.9221 14.6745H62.7922L59.1299 9.32712V14.6622H56.5714L56.5584 2.57513ZM62.6364 6.61647C62.6364 6.17291 62.4675 5.79095 62.1299 5.45828C61.7922 5.15025 61.1688 4.97776 60.5455 4.97776H59.1039V8.31679H60.0909V8.32911H60.9481C61.8961 8.32911 62.6364 7.54056 62.6364 6.61647Z" fill="#E5E5E5"/>
      <path d="M74.6883 9.25318V2.53816H77.2598V14.9086L69.5844 7.97178V14.6868H67.013V2.31638L74.6883 9.25318Z" fill="#E5E5E5"/>
      <path d="M32.9221 24.0386V15.7341H37.3117C38.5325 15.7341 39.5585 16.1407 40.4156 16.9539C41.2727 17.7671 41.7143 18.7528 41.7143 19.8986C41.7143 21.0568 41.2857 22.0302 40.4156 22.8311C39.5585 23.6443 38.5195 24.0509 37.3117 24.0509H35.4416V27.5994H32.9351V24.0386H32.9221ZM37.3117 18.1121H35.4416V21.6852L37.3117 21.6975C38.3377 21.6975 39.1948 20.8843 39.1948 19.911C39.1948 18.9376 38.3377 18.1121 37.3117 18.1121Z" fill="#E5E5E5"/>
      <path d="M45.4546 15.5L51.1689 27.5994H48.4416L47.5974 25.8005H43.3117L42.4676 27.5994H39.7533L45.4546 15.5ZM46.6104 23.6936L45.4676 21.18L44.3117 23.6936H46.6104Z" fill="#E5E5E5"/>
      <path d="M51.9091 15.7464L54.1948 19.8617L56.4805 15.7464H59.3247L55.4416 22.5231V27.5994H52.9481V22.5107L49.0779 15.7341H51.9091V15.7464Z" fill="#E5E5E5"/>
      <path d="M63.1039 25.2707C63.7922 25.2707 64.5585 24.7285 64.5585 24.0632C64.5585 22.9789 63.026 22.8311 62.1559 22.5477C60.6364 22.0549 59.2857 20.872 59.2857 19.258C59.2857 17.2619 61 15.6479 63.1039 15.6479C65.026 15.6479 66.6234 17.0032 66.8701 18.7651L64.3766 19.2703C64.3766 18.6173 63.8052 18.0751 63.1169 18.0751C62.4156 18.0751 61.8442 18.6173 61.8442 19.2826C61.8442 20.3545 63.2727 20.6379 64.1429 20.8843C65.7143 21.3156 67.1169 22.4615 67.1169 24.1125C67.1169 26.1085 65.2208 27.7226 63.1169 27.7226C61.1818 27.7226 59.4416 26.3796 59.1559 24.6053L61.6494 24.1002C61.6494 24.7409 62.4156 25.283 63.1039 25.2707Z" fill="#E5E5E5"/>
      <path d="M68.2078 15.7464H70.7143V27.5994H68.2078V15.7464Z" fill="#E5E5E5"/>
      <path d="M80.4805 15.7464V18.1121H77.4026V27.5994H74.8831V18.1121H71.8052V15.7464H80.4805Z" fill="#E5E5E5"/>
      <path d="M89.1039 15.7218V18.0998H84.0779V20.4901H87.8442V22.868H84.0779V25.2583H89.1039V27.624H81.5714V15.7218H89.1039Z" fill="#E5E5E5"/>
      <path d="M93.6623 25.2707C94.3507 25.2707 95.1169 24.7285 95.1169 24.0632C95.1169 22.9789 93.5844 22.8311 92.7143 22.5477C91.1948 22.0549 89.8442 20.872 89.8442 19.258C89.8442 17.2619 91.5585 15.6479 93.6623 15.6479C95.5844 15.6479 97.1818 17.0032 97.4286 18.7651L94.9351 19.2703C94.9351 18.6173 94.3636 18.0751 93.6753 18.0751C92.974 18.0751 92.4026 18.6173 92.4026 19.2826C92.4026 20.3545 93.8312 20.6379 94.7013 20.8843C96.2727 21.3156 97.6753 22.4615 97.6753 24.1125C97.6753 26.1085 95.7792 27.7226 93.6753 27.7226C91.7403 27.7226 90 26.3796 89.7143 24.6053L92.2078 24.1002C92.2208 24.7409 92.974 25.283 93.6623 25.2707Z" fill="#E5E5E5"/>
    </g>
    <defs>
      <clipPath id="clip0_156_3912">
        <rect width="98" height="31" fill="white"/>
      </clipPath>
    </defs>
  </symbol>

  <symbol id="raitings" width="22" height="21" viewBox="0 0 22 21"
    xmlns="http://www.w3.org/2000/svg">
    <path d="M18.2353 8.78875C18.402 8.39536 18.2911 8.00342 17.9433 7.75451C17.5729 7.48934 17.1998 7.22741 16.8243 6.96985C16.7353 6.90875 16.693 6.84357 16.6873 6.73138C16.6643 6.28122 16.6331 5.83138 16.5982 5.38191C16.5628 4.9271 16.2885 4.64096 15.8376 4.57933C15.3768 4.51637 14.9155 4.45881 14.4555 4.3906C14.3966 4.3818 14.3247 4.33682 14.293 4.28705C14.0391 3.88764 13.7971 3.48084 13.5443 3.08063C13.3166 2.72011 12.928 2.59505 12.526 2.74347C12.0939 2.90319 11.6633 3.06681 11.2288 3.21928C11.1647 3.24161 11.0692 3.23518 11.0107 3.20238C10.6627 3.00669 10.3158 2.80842 9.97979 2.59309C9.7071 2.41835 9.42831 2.3164 9.10345 2.39763C9.0688 2.41202 9.0339 2.42653 8.99925 2.44092C8.60919 2.85043 8.21617 3.2572 7.83205 3.67218C7.75314 3.7572 7.68094 3.78781 7.56672 3.77907C7.22561 3.75281 6.8835 3.7352 6.54148 3.72368C6.32802 3.71646 6.11385 3.72665 5.90009 3.72902L5.76985 3.78314C5.54415 3.93466 5.38753 4.12895 5.32567 4.40422C5.22987 4.83014 5.11116 5.25091 5.01026 5.67558C4.98477 5.78331 4.93121 5.84039 4.83174 5.88477C4.41165 6.07278 3.9947 6.26833 3.57796 6.46441C3.23015 6.62787 3.02745 7.00015 3.10651 7.35433C3.21248 7.82989 3.32952 8.30268 3.44719 8.77551C3.46843 8.86046 3.46188 8.92336 3.40605 8.99482C3.12649 9.35414 2.85217 9.718 2.57631 10.0804C2.28516 10.4625 2.29849 10.8577 2.61377 11.2173C2.90165 11.5455 3.18617 11.8766 3.47865 12.2004C3.55846 12.2888 3.58542 12.3699 3.5625 12.4897C3.47932 12.9232 3.40801 13.3588 3.3337 13.7938C3.256 14.2485 3.45023 14.6013 3.8775 14.7717C4.30514 14.9422 4.73552 15.1061 5.16271 15.2777C5.2129 15.2978 5.27435 15.3413 5.29032 15.3878C5.43802 15.8182 5.59904 16.2462 5.71218 16.6861C5.82632 17.1298 6.24003 17.4182 6.72699 17.3427C7.14275 17.278 7.56337 17.2435 7.9811 17.1887C8.09813 17.1734 8.18177 17.1997 8.26668 17.2857C8.58714 17.6092 8.9152 17.9253 9.24113 18.2428C9.53733 18.5315 9.94457 18.5743 10.284 18.3487C10.6776 18.0867 11.0666 17.8173 11.463 17.5597C11.5205 17.5224 11.6155 17.5064 11.6812 17.5246C12.0479 17.6258 12.4123 17.7361 12.7745 17.852C13.0172 17.9295 13.2588 17.9956 13.5162 17.9424L13.6464 17.8883C13.8107 17.7757 13.9473 17.642 14.0406 17.46C14.2423 17.067 14.4569 16.6807 14.6611 16.2891C14.7073 16.2006 14.7687 16.1607 14.8653 16.1426C15.3212 16.057 15.7763 15.9678 16.2303 15.8732C16.6461 15.7866 16.8942 15.4809 16.9008 15.0542C16.908 14.5894 16.9128 14.1246 16.9141 13.6594C16.9142 13.573 16.9352 13.5154 17.0083 13.4584C17.3815 13.1677 17.7505 12.8714 18.1168 12.5726C18.4161 12.3282 18.5151 11.9122 18.3494 11.5797C18.1316 11.143 17.9023 10.7116 17.6852 10.2746C17.6591 10.2219 17.656 10.138 17.6786 10.0837C17.8597 9.64983 18.0523 9.22095 18.2357 8.78827L18.2353 8.78875ZM16.9436 10.0784C16.903 10.1689 16.9039 10.2416 16.9492 10.3287C17.1953 10.7989 17.4349 11.2724 17.6812 11.7425C17.7924 11.955 17.7884 11.9741 17.602 12.1267C17.2868 12.3848 16.9775 12.6498 16.6626 12.908C16.5687 12.9849 16.4671 13.0528 16.3655 13.1192C16.2787 13.1757 16.2462 13.246 16.2466 13.3528C16.249 13.8872 16.2432 14.4215 16.2393 14.9561C16.2376 15.1814 16.2162 15.2049 15.9884 15.2485C15.4581 15.3498 14.9272 15.4485 14.398 15.556C14.34 15.5679 14.271 15.6173 14.2426 15.6688C13.9734 16.1588 13.712 16.653 13.4482 17.1459C13.3622 17.3066 13.3341 17.3198 13.1573 17.2668C12.6307 17.109 12.1043 16.9508 11.5788 16.7895C11.492 16.7629 11.4271 16.7676 11.3468 16.8236C10.9043 17.1327 10.4554 17.4328 10.0091 17.7365C9.82907 17.8589 9.79258 17.8564 9.63641 17.7026C9.25252 17.3242 8.86986 16.9443 8.48297 16.569C8.44116 16.5287 8.37351 16.4923 8.31836 16.4926C8.185 16.4937 8.05157 16.5173 7.91839 16.5321C7.4801 16.5807 7.04164 16.6282 6.60369 16.6791C6.48512 16.693 6.39837 16.6658 6.37353 16.5508C6.19759 16.0054 6.02393 15.4743 5.85621 14.9413C5.82476 14.8413 5.7687 14.7895 5.67187 14.7527C5.1621 14.5595 4.65507 14.3597 4.14713 14.162C3.98131 14.0974 3.96294 14.0635 3.99388 13.8851C4.08751 13.3437 4.17889 12.802 4.27651 12.2614C4.2932 12.1693 4.27488 12.1039 4.21303 12.0337C3.85713 11.6293 3.50568 11.2209 3.15222 10.8143C3.00123 10.6406 2.99978 10.6216 3.13576 10.4438C3.4638 10.0152 3.79475 9.58842 4.11702 9.15545C4.15736 9.10111 4.17922 9.00742 4.16457 8.94203C4.04348 8.397 3.91418 7.85354 3.78139 7.31123C3.74904 7.17897 3.7813 7.09562 3.9059 7.03895C4.40629 6.81117 4.90303 6.57605 5.40558 6.35347C5.50854 6.30794 5.55471 6.2463 5.57985 6.1436C5.7086 5.61908 5.84244 5.0958 5.97455 4.57202C6.02088 4.38873 6.04848 4.3684 6.2374 4.37757C6.78094 4.40433 7.32455 4.42831 7.8677 4.46073C7.97386 4.46702 8.04012 4.4346 8.10891 4.35684C8.46294 3.95619 8.82269 3.5605 9.1808 3.16305C9.32436 3.00351 9.34799 3.0001 9.53792 3.1124C10.0029 3.38747 10.4683 3.66143 10.9313 3.93977C11.0103 3.98728 11.0757 3.994 11.1645 3.95987C11.6777 3.76309 12.1937 3.57344 12.7093 3.38301C12.8785 3.32062 12.9178 3.33943 13.0167 3.49936C13.3051 3.9663 13.5928 4.43384 13.8888 4.89613C13.9253 4.95306 14.0062 5.00525 14.0732 5.015C14.6166 5.09372 15.1619 5.16132 15.7064 5.23317C15.8939 5.25792 15.9205 5.28533 15.9342 5.47027C15.9745 6.02167 16.0109 6.57317 16.0575 7.12412C16.0628 7.1876 16.1064 7.2669 16.1576 7.30399C16.6029 7.62573 17.0537 7.93965 17.5031 8.25573C17.6709 8.37356 17.6792 8.40032 17.5949 8.5936C17.3789 9.089 17.1648 9.58517 16.9442 10.0785L16.9436 10.0784Z"/>
    <rect x="6.09033" y="11.3901" width="2.02036" height="2.69381"/>
    <rect x="9.45764" y="5.32904" width="2.02036" height="8.75488"/>
    <rect x="12.8248" y="8.69632" width="2.02036" height="5.38762"/>
  </symbol>

  <symbol id="new" width="16" height="16" viewBox="0 0 16 16"
    xmlns="http://www.w3.org/2000/svg">
    <path d="M2.70979 2.24193C2.90515 2.18574 3.27227 2.25754 3.64087 2.29008C3.84756 2.30834 4.05652 2.30174 4.26448 2.3026C4.40192 2.30315 4.50017 2.23772 4.55169 2.10893C4.66998 1.81328 4.78176 1.51483 4.90702 1.22243C4.98148 1.04845 5.06272 0.874199 5.16514 0.715588C5.41506 0.328833 5.84276 0.1879 6.26075 0.378805C6.52651 0.499956 6.76848 0.674309 7.01716 0.830505C7.21013 0.951728 7.39687 1.0829 7.58748 1.20813C7.67999 1.26891 7.77947 1.27026 7.87049 1.21241C8.0424 1.10368 8.21373 0.993028 8.37772 0.872976C8.62263 0.694269 8.84569 0.481028 9.10544 0.328543C9.60468 0.0354111 10.0777 0.156143 10.3771 0.654437C10.5597 0.958188 10.6786 1.29892 10.8465 1.61222C11.1151 2.11331 11.1118 2.11133 11.6645 2.05858C12.0181 2.02498 12.3673 1.93419 12.7208 1.91404C13.2658 1.88304 13.6125 2.15625 13.6987 2.66392C13.7314 2.85779 13.7213 3.06173 13.7111 3.25971C13.6976 3.52019 13.6646 3.77943 13.6401 4.03908C13.6078 4.37719 13.773 4.5591 14.0867 4.66507C14.4326 4.78182 14.7708 4.92538 15.102 5.08005C15.2397 5.14436 15.3691 5.25091 15.4687 5.36714C15.7015 5.63889 15.7362 5.96377 15.5797 6.27494C15.4269 6.57872 15.2243 6.85735 15.0414 7.1458C14.955 7.28225 14.8651 7.41645 14.7741 7.5498C14.6924 7.66957 14.6919 7.79329 14.7675 7.91053C14.878 8.08133 14.9944 8.24886 15.115 8.41271C15.2861 8.64562 15.4882 8.85957 15.6329 9.10741C15.927 9.61179 15.8109 10.0775 15.3108 10.3786C15.0075 10.5614 14.6659 10.6794 14.3532 10.8483C13.8478 11.1212 13.8579 11.1101 13.9084 11.6671C13.9405 12.0208 14.0311 12.3702 14.0499 12.7241C14.0784 13.2697 13.8196 13.603 13.3132 13.6969C13.1157 13.7334 12.9066 13.7219 12.7035 13.7126C12.4243 13.7001 12.1457 13.6702 11.8673 13.6458C11.5723 13.6197 11.4188 13.773 11.3211 14.0365C11.1821 14.4103 11.0479 14.7899 10.8623 15.141C10.5845 15.6663 10.1168 15.7974 9.58151 15.5389C9.44542 15.4732 9.31667 15.3894 9.19055 15.3054C8.92941 15.1319 8.67214 14.9523 8.41318 14.7751C8.29376 14.6935 8.17241 14.6929 8.05381 14.7728C7.88116 14.889 7.70396 14.9999 7.5417 15.1296C7.25298 15.3604 6.99002 15.6279 6.6233 15.7407C6.25693 15.8537 5.9177 15.7725 5.69777 15.4569C5.50969 15.187 5.37645 14.8787 5.22112 14.5861C5.19238 14.5318 5.17903 14.4694 5.15056 14.4151C4.84317 13.8258 4.82602 13.8322 4.10042 13.9346C3.76793 13.9815 3.43254 14.0463 3.09914 14.0421C2.60306 14.0358 2.2809 13.7137 2.25375 13.2167C2.23727 12.9155 2.28192 12.6112 2.29384 12.3082C2.30188 12.1052 2.30316 11.9016 2.30299 11.6981C2.30298 11.5608 2.23564 11.4632 2.10713 11.4115C1.8115 11.2932 1.51277 11.1824 1.2205 11.0565C1.04225 10.9797 0.863928 10.8958 0.702166 10.7899C0.325286 10.5429 0.18922 10.1116 0.377876 9.70197C0.496055 9.44515 0.66297 9.2102 0.814768 8.96971C0.939044 8.77311 1.07434 8.5833 1.20297 8.38925C1.27002 8.28796 1.27084 8.18087 1.20566 8.08044C1.09202 7.90612 0.977013 7.73221 0.854075 7.5646C0.683184 7.33161 0.480435 7.11846 0.333933 6.87147C0.0370452 6.37062 0.151706 5.90029 0.639868 5.59233C0.871457 5.44632 1.13027 5.34367 1.37661 5.22063C1.54187 5.1381 1.70774 5.05657 1.87085 4.96991C2.03132 4.88436 2.0945 4.74097 2.07342 4.56683C2.041 4.29855 1.99018 4.03258 1.96128 3.76412C1.93594 3.52891 1.90751 3.29045 1.91982 3.0554C1.94027 2.6618 2.16318 2.40593 2.71071 2.24105L2.70979 2.24193ZM10.7351 7.2342C10.7209 7.23645 10.7064 7.23905 10.6922 7.24129C10.667 7.2027 10.6406 7.16479 10.6169 7.12542C10.3725 6.71844 10.1311 6.30964 9.88335 5.90456C9.76038 5.70353 9.56221 5.65343 9.38413 5.76643C9.22507 5.86737 9.18699 6.07265 9.29808 6.2582C9.77125 7.048 10.2452 7.83727 10.7203 8.62559C10.8299 8.80739 10.9664 8.87149 11.1324 8.82872C11.3007 8.78555 11.3795 8.6777 11.387 8.46502C11.3976 8.16157 11.4024 7.85778 11.4108 7.55408C11.4121 7.50652 11.4186 7.45919 11.4227 7.4117C11.4885 7.4445 11.5198 7.48389 11.5489 7.52457C11.728 7.77567 11.9028 8.03017 12.0865 8.27777C12.2201 8.45795 12.4221 8.48927 12.5853 8.36378C12.7041 8.2727 12.7207 8.142 12.7136 8.0039C12.6869 7.47783 12.6607 6.95158 12.6337 6.42559C12.6133 6.02739 12.5962 5.6291 12.5693 5.23172C12.5555 5.02968 12.4057 4.89352 12.2283 4.89978C12.0329 4.90674 11.9031 5.04205 11.8922 5.25248C11.8899 5.29496 11.8931 5.33785 11.8951 5.38053C11.9171 5.81165 11.9395 6.24296 11.9612 6.67416C11.9642 6.73592 11.9634 6.79795 11.9643 6.85975C11.9009 6.83189 11.8715 6.79725 11.8455 6.76071C11.7047 6.56391 11.5664 6.36519 11.4242 6.1697C11.3093 6.01188 11.1779 5.96146 11.0188 6.00749C10.8576 6.05419 10.7673 6.17717 10.7598 6.37314C10.7512 6.60078 10.7483 6.82849 10.7424 7.0562C10.7408 7.11549 10.7376 7.17466 10.735 7.23393L10.7351 7.2342ZM5.74516 8.97367C5.73502 8.98154 5.72452 8.98921 5.71438 8.99707C5.64187 8.94513 5.5689 8.89362 5.49677 8.84097C4.9364 8.43137 4.37577 8.02185 3.81597 7.61117C3.70876 7.53249 3.59585 7.50269 3.4685 7.55489C3.27615 7.63373 3.20863 7.80112 3.28158 8.04274C3.53477 8.8804 3.7905 9.71759 4.04615 10.5545C4.0612 10.6039 4.08423 10.6521 4.1106 10.6966C4.20113 10.8499 4.36547 10.9026 4.52803 10.8337C4.70857 10.7573 4.77522 10.5851 4.70573 10.3528C4.57524 9.91534 4.44058 9.47882 4.30763 9.04208C4.28618 8.97161 4.26465 8.90086 4.2432 8.83039C4.25271 8.82243 4.26258 8.81465 4.27209 8.80668C4.30898 8.82887 4.34757 8.84876 4.38239 8.87398C4.96217 9.29737 5.54185 9.72139 6.12125 10.1455C6.30174 10.2777 6.44943 10.2933 6.59185 10.1935C6.72194 10.1023 6.75729 9.95278 6.69841 9.74269C6.69206 9.71985 6.68453 9.69707 6.67763 9.6744C6.4366 8.88258 6.19557 8.09076 5.95408 7.29937C5.93471 7.23573 5.92206 7.16378 5.88262 7.1146C5.82867 7.04716 5.75996 6.98123 5.68306 6.94525C5.56539 6.89004 5.44795 6.93265 5.35351 7.01452C5.22958 7.12208 5.22674 7.26471 5.26966 7.40863C5.41128 7.88272 5.55665 8.35538 5.70073 8.82872C5.71545 8.87707 5.73017 8.92541 5.74488 8.97376L5.74516 8.97367ZM7.35261 7.08914C7.39758 7.07217 7.43604 7.05539 7.47591 7.04326C7.7352 6.96373 7.99546 6.88839 8.25325 6.80395C8.33249 6.77804 8.41536 6.74147 8.47675 6.68727C8.5937 6.58423 8.60869 6.4188 8.53354 6.28171C8.45503 6.13848 8.29699 6.08004 8.09832 6.13813C7.68287 6.25951 7.26843 6.38418 6.85631 6.51649C6.6084 6.59613 6.52766 6.75441 6.60269 7.00286C6.85922 7.85442 7.1184 8.70489 7.37957 9.55504C7.4601 9.81763 7.61608 9.89968 7.88213 9.82377C8.11989 9.75587 8.35576 9.68079 8.59219 9.60853C8.77408 9.55316 8.95903 9.50492 9.13705 9.43879C9.3499 9.35967 9.43243 9.1916 9.36879 9.00116C9.30944 8.82285 9.13973 8.73783 8.9298 8.79128C8.77333 8.83115 8.6197 8.88328 8.46513 8.93034C8.29826 8.98113 8.13139 9.03193 7.96425 9.0828L7.7588 8.40788C8.08244 8.30937 8.39646 8.21557 8.70905 8.11804C8.92431 8.05072 9.02665 7.87422 8.96741 7.68156C8.90825 7.48916 8.72647 7.40273 8.50791 7.46508C8.38443 7.50058 8.26203 7.53963 8.1394 7.57696C7.9455 7.63598 7.75159 7.69501 7.55605 7.75453L7.35343 7.0889L7.35261 7.08914Z"/>
  </symbol>

  <symbol id="discount" width="17" height="14" viewBox="0 0 17 14"
    xmlns="http://www.w3.org/2000/svg">
    <path d="M13.1057 0.656893C11.9117 0.861853 10.849 1.3035 9.88132 1.98099C9.63367 2.15422 9.39669 2.35317 9.18512 2.57186C8.85219 2.91574 8.78659 3.40713 8.98093 3.8342C9.18922 4.29215 9.58283 4.50654 10.1298 4.46109C10.5119 4.42936 10.9088 4.06318 11.0187 3.63182C11.0523 3.49889 11.0671 3.36082 11.1105 3.10784C10.8211 3.31108 10.6136 3.45173 10.4111 3.60009C10.1495 3.79047 9.86082 3.95083 9.61891 3.62667C9.37947 3.30508 9.57627 3.03495 9.83786 2.8377C10.9318 2.01272 12.0888 1.32837 13.4837 1.29407C14.8859 1.25891 15.8126 2.04188 16.4284 3.28364C16.6326 3.69613 16.7474 4.15665 16.9344 4.58115C17.0918 4.93962 16.9557 5.0734 16.6359 5.12571C16.4899 5.14972 16.3456 5.18831 16.1734 5.22605C15.6797 3.79476 15.2623 2.2657 13.323 2.23311C13.323 2.67133 13.323 3.09326 13.323 3.51433C13.323 3.97142 13.3951 4.4448 13.3025 4.88044C13.2082 5.31952 13.0409 5.81348 12.7498 6.12393C10.3881 8.64348 7.99362 11.1296 5.59832 13.614C5.09975 14.1311 4.72745 14.1285 4.21822 13.6071C2.94062 12.2976 1.67285 10.9778 0.421493 9.64084C-0.151706 9.02853 -0.135305 8.6512 0.440353 8.03203C1.32598 7.07926 2.22473 6.14022 3.12348 5.20032C4.47653 3.78618 5.84843 2.39176 7.18343 0.959617C7.81568 0.278703 8.55042 -0.0368841 9.44671 0.00342187C10.3061 0.0420127 11.1663 0.0651672 12.0257 0.0968974C12.4447 0.112334 12.8236 0.218673 13.1057 0.656893ZM9.05228 7.43258C9.05228 6.67449 8.5209 6.10592 7.80583 6.09906C7.13751 6.09305 6.54053 6.73538 6.54873 7.45145C6.55775 8.16667 7.11373 8.74124 7.80337 8.74724C8.52992 8.75325 9.05146 8.2044 9.05228 7.43258ZM3.96401 9.60825C4.63971 9.72831 5.25965 9.03796 5.26293 8.29616C5.26621 7.59381 4.65365 6.98407 3.96729 6.9755C3.33259 6.96778 2.74053 7.61353 2.74053 8.31503C2.74053 9.05254 3.26371 9.60653 3.96401 9.60825ZM6.42655 10.1459C6.42655 10.1459 6.43065 10.1459 6.43311 10.1459C6.42327 9.97529 6.41917 9.80378 6.40359 9.63312C6.27648 8.21641 6.14036 6.80141 6.0231 5.38384C6.00096 5.1137 5.96077 4.87616 5.65736 4.8813C5.34821 4.88645 5.34821 5.14972 5.36625 5.38556C5.41628 6.03817 5.47286 6.68993 5.52862 7.34168C5.61636 8.36219 5.69017 9.38442 5.80907 10.4015C5.82957 10.5764 6.03376 10.8509 6.16906 10.8612C6.45771 10.8843 6.46263 10.6005 6.43803 10.3595C6.43065 10.2883 6.42983 10.2171 6.42655 10.1459Z"/>
  </symbol>

  <symbol id="arrow" width="12" height="8" viewBox="0 0 12 8"
    xmlns="http://www.w3.org/2000/svg">
    <rect x="1.36438" y="0.075592" width="8" height="2" rx="1" transform="rotate(43.0152 1.36438 0.075592)"/>
    <rect x="4.60693" y="5.65686" width="8" height="2" rx="1" transform="rotate(-45 4.60693 5.65686)"/>
  </symbol>

  <symbol id="procent" width="13" height="13" viewBox="0 0 13 13" fill="none"
    xmlns="http://www.w3.org/2000/svg">
    <rect y="9" width="3" height="4" fill="#D9D9D9"/>
    <rect x="5" width="3" height="13" fill="#D9D9D9"/>
    <rect x="10" y="5" width="3" height="8" fill="#D9D9D9"/>
  </symbol>

  <symbol id="green-arrow" width="12" height="8" viewBox="0 0 12 8" fill="none"
    xmlns="http://www.w3.org/2000/svg">
    <rect x="1.36438" y="0.075592" width="8" height="2" rx="1" transform="rotate(43.0152 1.36438 0.075592)" fill="#9DB93B"/>
    <rect x="4.60687" y="5.65686" width="8" height="2" rx="1" transform="rotate(-45 4.60687 5.65686)" fill="#9DB93B"/>
  </symbol>

</svg>