<svg width="11" height="11" viewBox="0 0 11 11" fill="none" xmlns="http://www.w3.org/2000/svg">
<g clip-path="url(#clip0_383_829)">
<path d="M2.75006 0C2.533 0 2.35713 0.175864 2.35713 0.392931V1.17856H3.14276V0.392931C3.14276 0.175864 2.9669 0 2.74983 0H2.75006Z" fill="white"/>
<path d="M8.24994 0C8.03287 0 7.85701 0.175864 7.85701 0.392931V1.17856H8.64264V0.392931C8.64264 0.175864 8.46678 0 8.24971 0H8.24994Z" fill="white"/>
<path d="M9.82144 1.17871H8.64287V2.75021C8.64287 2.96727 8.46701 3.14314 8.24994 3.14314C8.03288 3.14314 7.85701 2.96727 7.85701 2.75021V1.17871H3.14276V2.75021C3.14276 2.96727 2.96689 3.14314 2.74983 3.14314C2.53276 3.14314 2.3569 2.96727 2.3569 2.75021V1.17871H1.17833C0.527591 1.17871 0 1.7063 0 2.35727V9.82158C0 10.4726 0.527591 11.0001 1.17856 11.0001H9.82144C10.4724 11.0001 11 10.4726 11 9.82158V2.35727C11 1.7063 10.4724 1.17871 9.82144 1.17871ZM10.2144 9.82158C10.2144 10.0387 10.0385 10.2145 9.82144 10.2145H1.17856C0.961496 10.2145 0.785632 10.0387 0.785632 9.82158V4.7144H10.2141V9.82158H10.2144Z" fill="white"/>
<path d="M8.13508 5.61515C7.98177 5.46162 7.73294 5.46162 7.5794 5.61515L4.71425 8.4803L3.42059 7.18665C3.26706 7.03334 3.01822 7.03334 2.86492 7.18665C2.71161 7.34018 2.71161 7.58902 2.86492 7.74232L4.43641 9.31381C4.58972 9.46712 4.83855 9.46712 4.99186 9.31381L8.13461 6.17106C8.28815 6.01775 8.28815 5.76892 8.13461 5.61538L8.13508 5.61515Z" fill="white"/>
</g>
<defs>
<clipPath id="clip0_383_829">
<rect width="11" height="11" fill="white"/>
</clipPath>
</defs>
</svg>
